<svg width="68" height="69" viewBox="0 0 68 69" fill="none" xmlns="http://www.w3.org/2000/svg">
<g filter="url(#filter0_ddd_26673_18398)">
<rect x="5" y="4" width="58" height="58" rx="29" fill="white"/>
<path d="M34.0001 52.0006C45.2114 52.0006 54.3 42.9121 54.3 31.7008C54.3 20.4894 45.2114 11.4009 34.0001 11.4009C22.7888 11.4009 13.7002 20.4894 13.7002 31.7008C13.7002 42.9121 22.7888 52.0006 34.0001 52.0006Z" fill="#EBEBEB"/>
<path d="M51.7793 35.3222C51.6877 35.5246 51.5199 35.6827 51.3125 35.7622C51.105 35.8417 50.8746 35.8361 50.6712 35.7467C50.4678 35.6574 50.3079 35.4914 50.2261 35.2848C50.1444 35.0782 50.1474 34.8477 50.2345 34.6434C50.6641 33.6647 50.6226 32.5019 50.1624 31.5309C50.0306 31.2513 49.8636 30.9896 49.6654 30.7524C49.2666 30.2753 48.3976 29.5236 47.0684 29.845C44.9139 30.365 44.8916 32.225 45.9079 37.2013C46.2538 38.8956 46.026 40.2156 45.2314 41.126C44.5457 41.9107 43.6138 42.163 42.9971 42.242C42.6313 42.2881 42.3766 42.2727 42.3498 42.2712C42.1303 42.2521 41.9269 42.1479 41.7832 41.9809C41.6395 41.8139 41.5669 41.5972 41.5808 41.3773C41.5947 41.1574 41.6941 40.9517 41.8577 40.8041C42.0214 40.6566 42.2362 40.5788 42.4564 40.5876C42.4863 40.5892 43.4381 40.6229 43.9674 40.0078C44.1959 39.7408 44.311 39.3896 44.3539 39.013C44.4107 38.5206 44.3455 37.9844 44.2542 37.5388C43.8017 35.3237 43.442 33.3617 43.6146 31.7832C43.8263 29.8473 44.8556 28.6439 46.6726 28.2044C48.291 27.8132 49.8533 28.3478 50.9594 29.6694C51.0637 29.7944 51.1621 29.9238 51.2546 30.0575C52.3016 31.5807 52.5194 33.6371 51.7793 35.3222Z" fill="white"/>
<path d="M51.7789 35.3218C51.6873 35.5242 51.5196 35.6823 51.3122 35.7618C51.1047 35.8413 50.8743 35.8358 50.6709 35.7464C50.4675 35.657 50.3075 35.491 50.2258 35.2844C50.144 35.0779 50.1471 34.8474 50.2342 34.643C50.6637 33.6643 50.6223 32.5016 50.1621 31.5305C50.689 31.1608 51.1416 30.673 51.2543 30.0571C52.3013 31.5804 52.5191 33.6367 51.7789 35.3218Z" fill="#FFBC1F"/>
<g opacity="0.3">
<path d="M50.3304 35.4862C50.2411 35.3668 50.1852 35.2258 50.1684 35.0777C50.1515 34.9296 50.1744 34.7797 50.2345 34.6433C50.6641 33.6646 50.6226 32.5018 50.1624 31.5308C50.0306 31.2511 49.8636 30.9895 49.6654 30.7523C49.2666 30.2752 48.3976 29.5235 47.0684 29.8449C44.9139 30.3649 44.8916 32.2249 45.9079 37.2012C46.2538 38.8955 46.026 40.2155 45.2314 41.1259C44.5457 41.9106 43.6138 42.1629 42.9971 42.2419C42.6313 42.2879 42.3766 42.2726 42.3498 42.2711C42.1303 42.252 41.9269 42.1478 41.7832 41.9808C41.6395 41.8137 41.5669 41.5971 41.5808 41.3772C41.5947 41.1573 41.6941 40.9516 41.8577 40.804C42.0214 40.6564 42.2362 40.5787 42.4564 40.5875C42.4863 40.589 43.4382 40.6228 43.9674 40.0077C44.1959 39.7407 44.311 39.3895 44.3539 39.0129C44.4337 39.0238 44.5119 39.0436 44.5873 39.0718C44.9498 39.2098 45.3377 38.9398 45.3236 38.5524C45.3152 38.3141 45.2826 38.0182 45.2139 37.6507C44.8856 35.8919 42.8508 29.657 47.2848 29.137C51.1657 28.6821 52.5194 33.8793 50.3304 35.4862Z" fill="#363636"/>
</g>
<path d="M42.4895 42.5818C42.3975 42.5818 42.3409 42.5781 42.328 42.5772C42.0259 42.5546 41.745 42.4138 41.5461 42.1854C41.3471 41.957 41.2463 41.6593 41.2655 41.3571C41.2847 41.0548 41.4223 40.7722 41.6484 40.5708C41.8746 40.3693 42.1711 40.2651 42.4736 40.2809C42.4776 40.2809 43.303 40.3088 43.7341 39.8074C44.0832 39.4013 44.161 38.6174 43.9533 37.6004C43.4957 35.3592 43.1313 33.3722 43.309 31.7496C43.5365 29.6718 44.6436 28.3786 46.5996 27.9061C48.3354 27.4867 50.01 28.0575 51.1942 29.4723C52.5631 31.1077 52.9109 33.508 52.0598 35.4451C51.9997 35.5845 51.9127 35.7106 51.8036 35.8161C51.6946 35.9217 51.5658 36.0047 51.4246 36.0602C51.2833 36.1158 51.1325 36.1428 50.9808 36.1399C50.829 36.1369 50.6794 36.1039 50.5405 36.0429C50.4015 35.9818 50.276 35.8939 50.1712 35.7841C50.0664 35.6743 49.9844 35.5449 49.9298 35.4033C49.8752 35.2617 49.8492 35.1107 49.8533 34.959C49.8573 34.8073 49.8913 34.6579 49.9533 34.5194C50.4609 33.3644 50.2506 31.9297 49.4299 30.9491C49.0771 30.527 48.3091 29.86 47.14 30.1429C45.3527 30.5745 45.1611 32.0133 46.2078 37.14C46.5738 38.9325 46.3228 40.3413 45.4618 41.3279C44.7224 42.1736 43.7342 42.4569 43.035 42.5463C42.8541 42.5695 42.6719 42.5813 42.4895 42.5818ZM42.4087 40.8927C42.2696 40.8925 42.1358 40.9464 42.0357 41.0429C41.9355 41.1394 41.8767 41.2711 41.8716 41.4101C41.8666 41.5491 41.9157 41.6846 42.0086 41.7882C42.1015 41.8917 42.231 41.9551 42.3697 41.9651C42.3728 41.9651 42.6116 41.9804 42.9577 41.9372C43.5512 41.8617 44.3874 41.6245 44.9996 40.9237C45.7281 40.0895 45.9323 38.8578 45.6066 37.2628C45.1231 34.8947 44.8341 33.0618 44.9944 31.8128C45.1578 30.5396 45.775 29.8413 46.9959 29.5464C48.4873 29.1861 49.4557 30.024 49.9004 30.5553C50.8668 31.7105 51.1143 33.4028 50.5151 34.7662C50.4867 34.8307 50.4713 34.9002 50.4698 34.9707C50.4683 35.0412 50.4807 35.1113 50.5062 35.177C50.5318 35.2427 50.57 35.3028 50.6188 35.3537C50.6676 35.4046 50.7259 35.4454 50.7905 35.4738C50.9208 35.5311 51.0686 35.5343 51.2013 35.4827C51.334 35.4311 51.4408 35.3288 51.4981 35.1985C52.2577 33.4699 51.9465 31.3273 50.7239 29.8664C49.695 28.6372 48.2443 28.1404 46.7439 28.5029C45.0422 28.914 44.1183 29.9979 43.9192 31.8163C43.7505 33.3503 44.1074 35.288 44.5544 37.4775C44.7289 38.3315 44.8089 39.4984 44.1993 40.208C43.5713 40.9384 42.4871 40.8967 42.4412 40.8942C42.4303 40.893 42.4194 40.8927 42.4087 40.8927Z" fill="#363636"/>
<path d="M44.4916 41.1371C44.3297 42.2685 43.4569 43.3614 43.4569 43.3614H24.8272C23.9191 42.7049 23.0907 41.6541 23.0171 40.6401V40.6394C22.9826 40.1684 23.1115 39.7051 23.4712 39.2933C24.6063 37.9947 26.2492 39.4083 26.2492 39.4083C24.1937 35.4805 27.9995 30.5986 27.9995 30.5986C28.0004 30.5976 28.0012 30.5966 28.0018 30.5955C30.3335 27.9194 38.2252 26.8656 39.1747 28.0475C39.2259 28.1093 39.2576 28.1848 39.266 28.2646C39.3534 29.1558 39.8451 30.3938 40.2347 31.2612C40.4909 31.8311 40.8253 32.3596 41.2149 32.8466C42.12 33.9787 42.6055 35.199 42.8617 36.2529C43.0328 36.9509 43.1255 37.6658 43.1378 38.3844C43.1447 38.7847 43.1202 39.0217 43.1202 39.0217C44.352 39.4781 44.6082 40.3172 44.4916 41.1371Z" fill="white"/>
<path d="M25.5413 42.4439C25.9589 42.4439 26.2974 42.1053 26.2974 41.6877C26.2974 41.2702 25.9589 40.9316 25.5413 40.9316C25.1237 40.9316 24.7852 41.2702 24.7852 41.6877C24.7852 42.1053 25.1237 42.4439 25.5413 42.4439Z" fill="#FF5253"/>
<path d="M42.2743 42.6717C42.6601 42.5119 42.8433 42.0696 42.6835 41.6838C42.5237 41.298 42.0814 41.1148 41.6956 41.2746C41.3098 41.4344 41.1266 41.8767 41.2864 42.2625C41.4462 42.6483 41.8885 42.8315 42.2743 42.6717Z" fill="#FF5253"/>
<path d="M24.1746 41.5786C24.3845 41.5786 24.5547 41.4084 24.5547 41.1985C24.5547 40.9885 24.3845 40.8184 24.1746 40.8184C23.9646 40.8184 23.7944 40.9885 23.7944 41.1985C23.7944 41.4084 23.9646 41.5786 24.1746 41.5786Z" fill="#FF5253"/>
<path d="M24.6311 40.6953C24.841 40.6953 25.0112 40.5251 25.0112 40.3152C25.0112 40.1052 24.841 39.9351 24.6311 39.9351C24.4212 39.9351 24.251 40.1052 24.251 40.3152C24.251 40.5251 24.4212 40.6953 24.6311 40.6953Z" fill="#FF5253"/>
<path d="M25.6609 40.6665C25.8708 40.6665 26.041 40.4963 26.041 40.2864C26.041 40.0764 25.8708 39.9062 25.6609 39.9062C25.4509 39.9062 25.2808 40.0764 25.2808 40.2864C25.2808 40.4963 25.4509 40.6665 25.6609 40.6665Z" fill="#FF5253"/>
<path d="M41.9395 40.7864C42.158 40.6959 42.2617 40.4455 42.1712 40.227C42.0808 40.0086 41.8303 39.9049 41.6119 39.9953C41.3934 40.0858 41.2897 40.3363 41.3801 40.5547C41.4706 40.7732 41.7211 40.8769 41.9395 40.7864Z" fill="#FF5253"/>
<path d="M43.752 41.613C43.8064 41.3829 43.6638 41.1523 43.4337 41.098C43.2036 41.0437 42.973 41.1862 42.9187 41.4163C42.8643 41.6465 43.0069 41.877 43.237 41.9314C43.4671 41.9857 43.6977 41.8431 43.752 41.613Z" fill="#FF5253"/>
<path d="M43.3492 40.4875C43.4035 40.2574 43.261 40.0268 43.0309 39.9725C42.8007 39.9182 42.5701 40.0607 42.5158 40.2908C42.4615 40.521 42.604 40.7516 42.8342 40.8059C43.0643 40.8602 43.2949 40.7177 43.3492 40.4875Z" fill="#FF5253"/>
<path d="M42.8608 36.2537C42.4976 36.3449 42.1246 36.3907 41.7502 36.3902C39.2267 36.3902 37.1812 34.3446 37.1812 31.8212C37.1805 31.0775 37.3617 30.345 37.7091 29.6874C38.0564 29.0298 38.5592 28.4671 39.1738 28.0483C39.225 28.1101 39.2567 28.1856 39.2651 28.2654C39.3525 29.1567 39.8442 30.3946 40.2338 31.2621C40.49 31.832 40.8244 32.3604 41.214 32.8475C42.1191 33.9795 42.6046 35.1998 42.8608 36.2537Z" fill="#FFBC1F"/>
<g opacity="0.3">
<path d="M43.1192 39.0227C41.566 36.9273 39.265 37.8646 39.265 37.8646C39.5226 37.3003 40.0855 36.9874 40.5799 36.8159C41.183 36.6065 41.5172 35.9494 41.2971 35.3502C40.9868 34.5052 40.3644 33.8284 39.8898 33.2294C39.5446 32.7939 39.2408 32.2477 39.0229 31.81C38.9227 31.6104 38.75 31.4566 38.5401 31.3801C38.3303 31.3035 38.0991 31.31 37.8939 31.3981C31.0244 34.3364 27.9985 30.5995 27.9985 30.5995C27.9994 30.5986 28.0002 30.5975 28.0008 30.5965C30.3325 27.9204 38.2242 26.8665 39.1737 28.0485C39.2249 28.1103 39.2566 28.1858 39.265 28.2656C39.3524 29.1568 39.8441 30.3947 40.2337 31.2622C40.4899 31.8321 40.8243 32.3606 41.2139 32.8476C42.119 33.9797 42.6045 35.2 42.8607 36.2539C43.2434 37.8216 43.1192 39.0227 43.1192 39.0227Z" fill="#363636"/>
</g>
<g opacity="0.3">
<path d="M44.4906 41.1374C44.3287 42.2687 43.4559 43.3617 43.4559 43.3617H24.8262C23.9181 42.7051 23.0897 41.6543 23.0161 40.6404L24.1062 41.6654C24.6372 42.1648 25.3386 42.4428 26.0675 42.4428H26.4532C26.9651 42.4428 27.4634 42.2779 27.8743 41.9727C27.8743 41.9727 28.1542 42.2848 28.5976 41.9727C28.5976 41.9727 29.0578 42.2112 29.6821 41.5247C29.6821 41.5247 30.5918 41.2455 30.2604 40.286C29.9291 39.3265 29.0908 36.3843 29.6453 35.1763C29.6453 35.1763 30.1998 39.9401 31.5313 39.9623C31.5313 39.9623 32.9119 40.329 35.1301 35.1786C35.1017 35.2698 34.1744 38.2067 32.9978 40.1319C32.9978 40.1319 32.7639 41.2532 33.7748 41.1182C33.7748 41.1182 33.9474 42.0271 35.3034 41.7326C35.3034 41.7326 36.9303 42.959 37.7686 38.11C37.7686 38.11 38.113 36.9511 37.9166 35.4647C37.9166 35.4647 38.4607 38.0695 37.907 40.7321C37.7514 41.4804 38.2751 42.2018 39.0347 42.2873C39.6496 42.3565 40.519 42.4152 41.7473 42.4384C42.6064 42.4546 43.4458 42.1483 44.0747 41.5626C44.2204 41.4279 44.3592 41.286 44.4906 41.1374Z" fill="#363636"/>
</g>
<g opacity="0.3">
<path d="M43.1187 39.0229C43.1187 39.0229 40.514 38.3985 40.0047 41.8416C40.0047 41.8416 39.4962 38.2428 43.1364 38.3855C43.1433 38.7859 43.1187 39.0229 43.1187 39.0229Z" fill="#363636"/>
</g>
<g opacity="0.3">
<path d="M33.1429 39.8894C33.1429 39.8894 33.375 40.4467 33.8002 40.3974C33.8853 40.3885 33.9692 40.3707 34.0506 40.3444C34.0773 40.3359 34.1056 40.3335 34.1333 40.3375C34.1611 40.3415 34.1875 40.3517 34.2107 40.3675C34.234 40.3832 34.2533 40.4039 34.2673 40.4282C34.2814 40.4525 34.2897 40.4796 34.2917 40.5076C34.3101 40.7256 34.3848 40.9785 34.6257 41.0261C34.9545 41.091 35.3183 40.8971 35.5493 40.7095C35.6537 40.6246 35.8117 40.6705 35.8479 40.8001L35.8498 40.8069C35.8547 40.8244 35.8646 40.8401 35.8781 40.8523C35.8917 40.8644 35.9084 40.8724 35.9264 40.8754C35.9443 40.8784 35.9628 40.8762 35.9795 40.8691C35.9963 40.862 36.0107 40.8502 36.021 40.8353C36.4079 40.275 37.441 38.5445 37.9169 35.4653C37.9169 35.4653 38.3218 39.0024 36.3032 41.6877C36.3032 41.6877 35.8214 42.1342 35.3037 41.7337C35.3037 41.7337 34.2365 42.0741 33.7751 41.1193C33.7755 41.1197 32.6827 41.068 33.1429 39.8894Z" fill="#363636"/>
</g>
<g opacity="0.3">
<path d="M27.0576 41.1738C27.0576 41.1738 27.8645 41.6976 28.0701 41.2753C28.1139 41.1853 28.2334 41.161 28.3146 41.2196C28.4543 41.3204 28.6521 41.4014 28.8515 41.2787C29.0371 41.1641 29.0969 40.9768 29.1106 40.8185C29.1225 40.6781 29.2035 40.5476 29.3355 40.4982C29.4812 40.4437 29.6192 40.3075 29.5131 39.972C29.32 39.3618 28.8203 36.2368 29.6464 35.1768C29.6464 35.1768 29.1569 36.2443 29.7325 38.3773C29.7325 38.3773 30.9977 41.2746 29.6832 41.5252C29.6832 41.5252 29.3631 42.3511 28.4632 41.9566C28.4626 41.9566 27.6617 42.5237 27.0576 41.1738Z" fill="#363636"/>
</g>
<path d="M43.4563 43.6687H24.827C24.7625 43.6687 24.6997 43.6483 24.6475 43.6106C23.8038 43.0008 22.8527 41.9324 22.7197 40.7625C22.6487 40.1408 22.8286 39.5633 23.2401 39.0923C23.9577 38.2704 24.8837 38.3474 25.6067 38.6565C25.1312 37.1378 25.2856 35.3471 26.0692 33.4158C26.7715 31.6848 27.717 30.4619 27.7566 30.4106L27.767 30.3981C28.7327 29.287 30.743 28.3157 33.2845 27.7335C35.4904 27.2273 37.6899 27.1175 38.7572 27.4574C39.3862 27.6582 39.5469 27.9911 39.5702 28.235C39.6529 29.0811 40.1289 30.2795 40.5135 31.1359C40.7474 31.6566 41.0636 32.1677 41.4532 32.6546C43.4404 35.1397 43.4769 37.9917 43.4399 38.8205C44.1374 39.1284 44.5763 39.5926 44.7463 40.2029C45.1604 41.6928 43.7558 43.4768 43.6958 43.552C43.6672 43.5882 43.6308 43.6175 43.5894 43.6377C43.5479 43.6579 43.5024 43.6685 43.4563 43.6687ZM24.9273 43.0551H43.3025C43.5827 42.6658 44.435 41.3697 44.1552 40.3677C44.0222 39.8921 43.649 39.5456 43.013 39.3106C42.949 39.2871 42.8946 39.2429 42.8585 39.1851C42.8224 39.1273 42.8066 39.0591 42.8136 38.9912C42.8168 38.9592 43.1164 35.7189 40.9737 33.0393C40.5519 32.5116 40.2085 31.9562 39.9536 31.3883C39.55 30.4901 39.0501 29.2253 38.9593 28.2959C38.9533 28.2345 38.8477 28.1316 38.5698 28.0429C36.6676 27.4359 30.2514 28.4866 28.2352 30.794C28.0873 30.988 24.6128 35.6221 26.5194 39.2672C26.5526 39.3304 26.5627 39.4033 26.5479 39.4732C26.5332 39.543 26.4945 39.6056 26.4386 39.65C26.3827 39.6944 26.313 39.7179 26.2416 39.7165C26.1702 39.715 26.1015 39.6887 26.0474 39.6421C25.9901 39.593 24.6194 38.4445 23.7004 39.4961C23.4014 39.8385 23.2759 40.2413 23.3276 40.6926C23.4175 41.4705 24.0414 42.389 24.9273 43.0551Z" fill="#363636"/>
<path d="M26.5373 39.3079C26.6403 39.594 26.757 39.8871 26.8811 40.1692C27.0025 40.4501 27.1386 40.7243 27.2888 40.9909C27.3266 41.0556 27.3637 41.1209 27.4043 41.1809L27.464 41.273L27.5268 41.3579C27.5677 41.4179 27.6124 41.463 27.655 41.5127C27.6644 41.5245 27.6752 41.5351 27.6872 41.5442L27.7188 41.5716L27.7495 41.6C27.7607 41.6095 27.7762 41.6186 27.7894 41.6279C27.8968 41.7046 28.0109 41.7614 28.1023 41.7806C28.1383 41.7891 28.1756 41.7904 28.212 41.7842C28.2236 41.7821 28.2348 41.7782 28.2453 41.7729C28.2488 41.7711 28.2522 41.7691 28.2554 41.7668C28.2566 41.7658 28.258 41.7652 28.2571 41.7655C28.2562 41.7658 28.258 41.7655 28.2557 41.7672C28.2516 41.7713 28.2478 41.7756 28.2444 41.7803L28.6518 41.7172C28.6466 41.7137 28.6496 41.7157 28.6527 41.7172C28.6556 41.719 28.6586 41.7206 28.6618 41.722C28.6691 41.7259 28.6767 41.7294 28.6845 41.7325C28.6998 41.7401 28.7178 41.7454 28.7348 41.7516C28.7684 41.7618 28.8031 41.7683 28.8382 41.771C28.9044 41.7755 28.9708 41.7639 29.0316 41.7371C29.1005 41.7021 29.1628 41.6554 29.2157 41.5991C29.245 41.567 29.2723 41.5294 29.3014 41.4951L29.3794 41.3734L29.7169 41.2276C29.7078 41.2253 29.7169 41.2276 29.7184 41.2276L29.7311 41.2286C29.74 41.2286 29.7498 41.2295 29.7592 41.2294C29.7775 41.2293 29.7957 41.2275 29.8136 41.224C29.8411 41.2192 29.8672 41.2087 29.8903 41.1933C29.9114 41.1789 29.9287 41.1597 29.941 41.1374C29.9603 41.1033 29.9749 41.0668 29.9842 41.0287C30.0066 40.9367 30.0108 40.8192 30.0042 40.6968C29.9961 40.5683 29.9785 40.4407 29.9514 40.3148C29.9396 40.2501 29.9218 40.1841 29.908 40.1186L29.8558 39.9192C29.8187 39.7781 29.7791 39.6377 29.7442 39.496C29.6759 39.212 29.6121 38.9276 29.5579 38.6411C29.4525 38.0677 29.3673 37.4897 29.3432 36.9043C29.3366 36.7582 29.3378 36.6108 29.3383 36.4646C29.3461 36.3174 29.3498 36.1709 29.3689 36.0239C29.3755 35.9509 29.3873 35.8776 29.3996 35.8047C29.4054 35.7682 29.4118 35.7318 29.4186 35.6956L29.4456 35.5883C29.4552 35.5524 29.4622 35.5165 29.4739 35.4809L29.5121 35.376C29.5326 35.3057 29.5766 35.2417 29.6084 35.1782C29.5513 35.4635 29.5731 35.7458 29.5974 36.0268C29.6216 36.3079 29.6667 36.5875 29.7156 36.8662C29.8106 37.4235 29.9287 37.9782 30.0747 38.5256C30.1436 38.8001 30.2225 39.0723 30.3048 39.3429C30.3438 39.4788 30.3884 39.6129 30.4297 39.7479C30.4734 39.8881 30.5196 40.0352 30.5524 40.1855C30.589 40.3398 30.6139 40.4967 30.6271 40.6548C30.6437 40.8303 30.6327 41.0073 30.5945 41.1794C30.5699 41.2811 30.5301 41.3785 30.4763 41.4682C30.4149 41.5683 30.332 41.6534 30.2335 41.7174C30.135 41.7813 30.0235 41.8224 29.9071 41.8378C29.854 41.8455 29.8004 41.8484 29.7468 41.8465C29.7204 41.8465 29.6941 41.8438 29.6675 41.8407L29.6267 41.8352C29.6113 41.8324 29.602 41.8312 29.5753 41.825L29.9127 41.6793L29.8009 41.8536C29.756 41.9097 29.7132 41.9666 29.6629 42.0206C29.5592 42.128 29.4364 42.2277 29.285 42.2967C29.131 42.3656 28.9624 42.3954 28.7942 42.3836C28.7123 42.3774 28.6314 42.362 28.553 42.3376C28.5142 42.3253 28.4761 42.311 28.4389 42.2948C28.4202 42.2872 28.401 42.2773 28.3821 42.2679C28.3729 42.2635 28.3628 42.2579 28.3524 42.2526C28.3419 42.2472 28.3329 42.2418 28.3154 42.2305L28.7227 42.1674C28.7127 42.1796 28.7021 42.1911 28.6909 42.2021C28.6819 42.2115 28.6756 42.2174 28.6677 42.2239C28.6535 42.2367 28.6386 42.2488 28.6231 42.2601C28.5946 42.2814 28.5643 42.3003 28.5328 42.3167C28.4729 42.3481 28.409 42.3712 28.3428 42.3851C28.2233 42.4093 28.1 42.4085 27.9808 42.3827C27.7613 42.3348 27.59 42.2368 27.4396 42.1323C27.4206 42.1187 27.4019 42.1073 27.3826 42.0917L27.3241 42.0415C27.2873 42.0077 27.2425 41.9737 27.2138 41.9389C27.1525 41.8695 27.0871 41.7994 27.0382 41.7284L26.9598 41.6219L26.89 41.5146C26.8418 41.4431 26.8006 41.3707 26.7585 41.2983C26.597 41.0125 26.4507 40.7183 26.3204 40.417C26.1894 40.1185 26.0711 39.8224 25.9595 39.5119L26.5373 39.3079Z" fill="#363636"/>
<path d="M28.3585 42.0223C28.3115 41.9391 28.2702 41.8529 28.2348 41.7641C28.1995 41.6756 28.1678 41.5853 28.1406 41.4928C28.1119 41.3994 28.0907 41.3038 28.0774 41.207C28.0653 41.11 28.0621 41.0027 28.0943 40.9048C28.1489 40.9899 28.2088 41.0582 28.2655 41.1306C28.3223 41.203 28.3767 41.2746 28.4326 41.3463L28.5972 41.5624C28.6501 41.6347 28.7045 41.7089 28.7506 41.7815L28.3585 42.0223Z" fill="#363636"/>
<path d="M29.437 41.622C29.3795 41.4303 29.327 41.2374 29.2807 41.0415C29.2566 40.944 29.2336 40.8461 29.214 40.7469C29.1931 40.6471 29.1777 40.5463 29.168 40.4448C29.2936 40.6062 29.4097 40.7685 29.522 40.9337C29.6366 41.0972 29.7474 41.2631 29.8549 41.4289L29.437 41.622Z" fill="#363636"/>
<path d="M43.066 39.325C43.0581 39.3236 43.0333 39.3199 43.0149 39.3181C42.9965 39.3163 42.9741 39.3138 42.9535 39.3123C42.9115 39.3094 42.8684 39.3067 42.8253 39.3052C42.7383 39.3024 42.6513 39.3043 42.5645 39.3109C42.3902 39.324 42.2176 39.3544 42.0492 39.4017C41.7092 39.4977 41.3951 39.669 41.1302 39.9029C40.996 40.0249 40.8732 40.159 40.7633 40.3034C40.7111 40.379 40.6545 40.4525 40.6085 40.5335C40.5844 40.5732 40.5577 40.6117 40.5349 40.6527L40.4675 40.7765C40.2868 41.1083 40.1454 41.4691 40.0056 41.8414C39.9972 41.4387 40.0595 41.0377 40.1897 40.6565C40.3229 40.2608 40.5344 39.8959 40.8116 39.5836C41.1032 39.2635 41.4681 39.0188 41.875 38.8705C42.0785 38.7959 42.29 38.7454 42.5053 38.7201C42.6131 38.7072 42.7215 38.6999 42.83 38.6985C42.8846 38.6977 42.9394 38.6985 42.9949 38.7022C43.0226 38.7037 43.0506 38.706 43.079 38.7088C43.1074 38.7116 43.1328 38.7142 43.1733 38.7206L43.066 39.325Z" fill="#363636"/>
<path d="M42.577 39.1454C42.565 39.1246 42.5416 39.0862 42.5215 39.056C42.5014 39.0258 42.4793 38.9913 42.4567 38.9592C42.412 38.8951 42.3647 38.8316 42.3156 38.7698C42.2172 38.6463 42.1104 38.5297 41.9959 38.4209C41.7697 38.203 41.5057 38.028 41.217 37.9043C40.9269 37.784 40.6089 37.7271 40.2788 37.7257C39.9487 37.7243 39.6089 37.7817 39.2646 37.8638C39.559 37.6533 39.893 37.5046 40.2464 37.4267C40.6167 37.3475 41.0006 37.3577 41.3662 37.4565C41.7364 37.5561 42.0821 37.7432 42.3771 37.9831C42.5244 38.1033 42.6607 38.2363 42.7846 38.3804C42.8459 38.4525 42.9056 38.5265 42.9604 38.6047C42.988 38.6437 43.0153 38.6829 43.0409 38.7242C43.0665 38.7655 43.0898 38.8031 43.1196 38.8584L42.577 39.1454Z" fill="#363636"/>
<path d="M35.1316 35.1772C35.0768 35.6095 34.972 36.0252 34.8501 36.4351C34.7281 36.845 34.5764 37.2431 34.4301 37.6444C34.2837 38.0457 34.1246 38.4421 33.9581 38.8381C33.9176 38.9375 33.8743 39.0359 33.8295 39.1339C33.7847 39.2319 33.7428 39.3305 33.6954 39.4281L33.5554 39.7208L33.405 40.0123L33.4204 39.9816C33.4129 40.0009 33.4003 40.0366 33.3911 40.0658C33.3819 40.0949 33.3724 40.1272 33.3641 40.1592C33.348 40.2206 33.3355 40.2828 33.3267 40.3456C33.3082 40.4668 33.3099 40.5838 33.3339 40.6598C33.3607 40.7365 33.3822 40.7618 33.4449 40.7949C33.5118 40.8236 33.622 40.8432 33.7453 40.8369L34.0642 41.0792C34.0627 41.0721 34.0642 41.0782 34.0654 41.0819C34.0667 41.0865 34.0682 41.0909 34.07 41.0953C34.0735 41.1057 34.0777 41.116 34.0825 41.1259C34.0919 41.1476 34.1026 41.1687 34.1145 41.1891C34.1269 41.2095 34.1407 41.2289 34.1556 41.2474L34.1777 41.2754L34.203 41.2997C34.2738 41.3667 34.3603 41.4149 34.4545 41.44C34.5523 41.4728 34.6723 41.4719 34.791 41.4706C34.8524 41.4627 34.9148 41.4567 34.9772 41.4475L35.1678 41.4053L35.4132 41.4432C35.4097 41.441 35.4167 41.4449 35.4213 41.4472C35.4259 41.4495 35.4319 41.4525 35.4381 41.4553C35.4496 41.4611 35.4621 41.4665 35.4755 41.4717C35.5016 41.4824 35.5283 41.4915 35.5556 41.499C35.6084 41.5136 35.6628 41.5224 35.7175 41.5252C35.8205 41.5314 35.9231 41.5077 36.013 41.4571C36.105 41.4054 36.1925 41.3243 36.2724 41.2258C36.292 41.2008 36.3091 41.1715 36.3282 41.145C36.3469 41.116 36.3661 41.0943 36.385 41.0598C36.4223 40.994 36.4617 40.9301 36.4977 40.8627C36.6449 40.5946 36.7772 40.3123 36.9026 40.0279L36.9946 39.8131L37.0802 39.5955C37.1406 39.4516 37.1902 39.304 37.245 39.1572C37.4505 38.5678 37.6169 37.9631 37.7205 37.3471C37.7323 37.2704 37.7475 37.1937 37.7588 37.1159L37.7895 36.884C37.8156 36.7292 37.8257 36.5738 37.8463 36.4175L37.8605 36.3001L37.8678 36.1825L37.8882 35.9456C37.9017 35.787 37.9009 35.6281 37.9188 35.4641C37.9725 35.6181 38.0173 35.775 38.0529 35.9341C38.079 36.094 38.115 36.2563 38.1232 36.4187C38.1359 36.5815 38.1491 36.7456 38.1426 36.9087L38.137 37.1541C38.1333 37.2357 38.1242 37.3167 38.117 37.398C38.0557 38.0483 37.932 38.6912 37.7476 39.3178C37.6556 39.6306 37.5553 39.9417 37.4341 40.2456C37.3129 40.5495 37.1887 40.8523 37.0339 41.1473C36.9963 41.2214 36.9543 41.2947 36.9145 41.3686C36.896 41.4045 36.8661 41.4464 36.842 41.4849C36.8179 41.5234 36.7923 41.5636 36.763 41.6015C36.6445 41.7524 36.4996 41.8971 36.3129 42.0028C36.1225 42.1095 35.9055 42.1594 35.6876 42.1467C35.5829 42.1412 35.4793 42.1228 35.3791 42.0919C35.3299 42.0768 35.2815 42.0589 35.2342 42.0384C35.2106 42.0284 35.1868 42.0173 35.163 42.0049C35.151 41.9989 35.1394 41.9931 35.1265 41.9856C35.1136 41.9781 35.103 41.9727 35.0826 41.9598L35.3281 41.9977L35.0852 42.0513C35.0018 42.0643 34.9165 42.0732 34.8312 42.0819C34.6557 42.0858 34.4749 42.0859 34.2886 42.0289C34.0962 41.9759 33.9201 41.8758 33.7763 41.7374L33.7229 41.6837L33.6752 41.6253C33.6439 41.5862 33.6152 41.5453 33.5893 41.5025C33.5637 41.4592 33.5408 41.4143 33.5207 41.3682C33.51 41.3446 33.5006 41.3205 33.4923 41.2959C33.4879 41.2838 33.4834 41.2712 33.4794 41.2568C33.4755 41.2424 33.4715 41.2312 33.4658 41.206L33.7847 41.4482C33.6068 41.4599 33.4066 41.4565 33.1929 41.3674C33.0801 41.3185 32.9797 41.2452 32.8988 41.1526C32.8207 41.0611 32.7631 40.9538 32.7301 40.838C32.6687 40.6219 32.6798 40.4281 32.7063 40.251C32.7206 40.1641 32.7398 40.0781 32.764 39.9934C32.7761 39.9518 32.7887 39.9106 32.8029 39.8694C32.8172 39.8283 32.8304 39.7911 32.8517 39.7403V39.7392C32.8559 39.7294 32.8607 39.7197 32.8658 39.7104C33.0685 39.3528 33.2579 38.9783 33.4425 38.601C33.6298 38.2247 33.804 37.84 33.9837 37.4572C34.1633 37.0745 34.3281 36.6842 34.5132 36.3021C34.6984 35.92 34.895 35.5426 35.1316 35.1772Z" fill="#363636"/>
<path d="M33.5591 41.0373C33.6188 40.9538 33.6787 40.8712 33.7412 40.7896C33.8036 40.7079 33.867 40.6271 33.9302 40.5461C33.9934 40.4651 34.0598 40.3858 34.1257 40.3062C34.1917 40.2266 34.2609 40.1488 34.3342 40.0747L34.248 40.3723L34.1586 40.6668C34.1279 40.7642 34.0981 40.8627 34.0656 40.9594C34.0331 41.056 34.0012 41.1531 33.9677 41.249L33.5591 41.0373Z" fill="#363636"/>
<path d="M35.0474 41.5869L35.4737 41.0193C35.5435 40.9236 35.6171 40.8296 35.686 40.7329C35.7585 40.638 35.8258 40.5392 35.8875 40.437C35.8794 40.5597 35.8472 40.6785 35.8165 40.796C35.7821 40.9122 35.7472 41.0287 35.7068 41.1425C35.6665 41.2563 35.6269 41.3706 35.5827 41.4826C35.5385 41.5946 35.4941 41.7058 35.4459 41.8176L35.0474 41.5869Z" fill="#363636"/>
<path d="M33.2052 32.3153C30.3343 32.3153 27.7691 31.7674 25.7875 30.7304C25.2876 30.4704 24.8117 30.1665 24.3656 29.8222H24.3405V29.8021C24.1357 29.6423 23.939 29.4722 23.7513 29.2926C23.1927 28.759 22.7388 28.16 22.4014 27.5131C21.9126 26.572 21.665 25.5209 21.665 24.389C21.665 23.363 21.8732 22.3359 22.2835 21.3363C22.3794 20.5047 22.461 19.833 22.5403 19.2241C22.827 17.0391 23.2334 14.4815 24.0743 12.0794C24.1706 11.8008 24.3306 11.5485 24.5414 11.3426C24.7523 11.1367 25.0083 10.9828 25.2891 10.8931C25.5662 10.8025 25.8606 10.7778 26.1489 10.8209C26.4372 10.8641 26.7114 10.9739 26.9498 11.1417C28.3375 12.1122 29.7768 13.5408 30.6161 14.7814L30.6336 14.8073C31.5349 14.6126 32.4544 14.5149 33.3765 14.5158C34.2147 14.5156 35.051 14.5978 35.8731 14.7613C36.715 13.526 38.1459 12.1075 39.5257 11.1427C39.7642 10.9749 40.0387 10.8651 40.3271 10.822C40.6156 10.7789 40.9102 10.8037 41.1873 10.8945C41.468 10.9841 41.7239 11.138 41.9346 11.3438C42.1453 11.5497 42.3051 11.802 42.4012 12.0805C42.708 12.9588 42.97 13.8857 43.2004 14.9138C43.6769 17.0307 43.9554 19.2824 44.2 21.4081L44.2049 21.4501C44.3001 21.7065 44.382 21.9616 44.4489 22.209C44.6443 22.9196 44.7437 23.6531 44.7444 24.39C44.7444 26.3623 44.0157 28.0379 42.5785 29.3703C42.4251 29.5133 42.2594 29.655 42.0711 29.8035V29.8233H42.0455C41.3673 30.3516 40.5648 30.8075 39.6602 31.1785C38.1798 31.7844 36.4666 32.153 34.5683 32.274C34.1302 32.301 33.6718 32.3153 33.2052 32.3153ZM24.4166 29.7646C24.8581 30.105 25.329 30.4054 25.8237 30.6624C27.7944 31.6936 30.3472 32.2386 33.2058 32.2386C33.6707 32.2386 34.1276 32.2243 34.5635 32.1963C36.4543 32.0757 38.1594 31.7091 39.632 31.1071C40.5285 30.739 41.3234 30.2881 41.9953 29.7653L42.0106 29.7538C42.2033 29.6026 42.3723 29.4585 42.5277 29.3134C43.9488 27.9959 44.6692 26.3391 44.6692 24.3893C44.6685 23.6592 44.5701 22.9325 44.3765 22.2285C44.3046 21.9623 44.215 21.6876 44.1102 21.4116L44.0608 21.2815L44.1147 21.3243C43.8729 19.2277 43.5959 17.012 43.1269 14.9297C42.8968 13.9045 42.636 12.9806 42.3305 12.1052C42.2381 11.8378 42.0847 11.5956 41.8823 11.3979C41.6799 11.2003 41.4342 11.0526 41.1646 10.9666C40.8987 10.8795 40.6161 10.8557 40.3394 10.8971C40.0626 10.9384 39.7993 11.0438 39.5705 11.2049C38.1899 12.1713 36.7582 13.5915 35.9231 14.8251L35.9088 14.8463L35.8838 14.8412C35.0587 14.6754 34.2191 14.5921 33.3774 14.5925C32.4087 14.5919 31.4429 14.7006 30.4986 14.9167L30.3337 14.9527L30.5331 14.7944C29.6952 13.5672 28.2752 12.1619 26.9056 11.2039C26.6769 11.043 26.4138 10.9377 26.1372 10.8963C25.8607 10.8549 25.5782 10.8786 25.3124 10.9656C25.0429 11.0516 24.7972 11.1994 24.5948 11.397C24.3925 11.5947 24.239 11.8368 24.1466 12.1042C23.3086 14.4996 22.903 17.0523 22.6169 19.2335C22.5376 19.8436 22.4558 20.5159 22.3596 21.3504L22.357 21.3605C21.9491 22.3524 21.7422 23.3713 21.7422 24.389C21.7422 25.5088 21.9876 26.5478 22.4702 27.4777C22.8033 28.118 23.2526 28.7102 23.8048 29.2379C23.9953 29.4199 24.195 29.592 24.4031 29.7535L24.4166 29.7646Z" fill="#363636"/>
<path d="M40.1795 30.823C40.1795 30.823 39.9769 30.9434 39.6461 31.1416C38.1635 31.7485 36.433 32.1154 34.5661 32.2343C34.1199 32.2631 33.6665 32.2773 33.2059 32.2768C30.3878 32.2768 27.8063 31.7428 25.8061 30.6968C25.3305 29.2453 26.6038 28.2117 28.6688 27.5521C29.4487 27.3026 30.0592 26.68 30.2553 25.8849C31.0654 22.6022 34.9661 22.6022 35.7763 25.8849C35.9724 26.68 36.5827 27.3026 37.3626 27.5521C39.4867 28.2306 40.7741 29.3044 40.1795 30.823Z" fill="white"/>
<g opacity="0.6">
<path d="M39.4697 11.1726C39.347 11.2588 39.2243 11.3481 39.1016 11.4397C40.0773 10.9712 41.2823 11.4467 41.6552 12.5126C42.6538 15.3672 43.0734 18.5346 43.4518 21.8315L43.4343 21.8181C43.7994 22.7732 43.9961 23.7806 43.9961 24.8094C43.9961 26.8478 43.1984 28.5045 41.8424 29.7616C41.6773 29.9156 41.504 30.0631 41.3225 30.204H41.3217C41.2482 30.2617 41.1732 30.3186 41.0965 30.3738C41.3935 30.1937 41.6797 29.9964 41.9537 29.7829C41.9539 29.783 41.954 29.7831 41.9542 29.7831C41.9544 29.7831 41.9545 29.783 41.9546 29.7829C42.1355 29.6415 42.3093 29.4945 42.4745 29.3404C43.8303 28.0834 44.6283 26.4267 44.6283 24.3883C44.6283 23.3596 44.4314 22.3522 44.0665 21.397L44.0838 21.4105C43.7054 18.1135 43.2862 14.9462 42.2872 12.0916C41.8793 10.9278 40.4794 10.4671 39.4697 11.1726Z" fill="white"/>
</g>
<g opacity="0.6">
<path d="M24.4629 11.3963C24.7483 11.2793 25.0586 11.2361 25.3651 11.2706C25.6717 11.3051 25.9646 11.4162 26.2169 11.5937C27.4999 12.4906 28.7463 13.712 29.5745 14.8062C29.6679 14.9279 29.7929 15.0218 29.9359 15.0775C30.079 15.1332 30.2345 15.1486 30.3857 15.1222H30.3907H30.3916C30.439 15.0344 30.4912 14.9404 30.5417 14.8496C30.4983 14.8591 30.4539 14.8686 30.4105 14.8789L30.5061 14.8022C29.7003 13.6124 28.2971 12.1855 26.8489 11.1726C26.0754 10.6322 25.0725 10.7761 24.4629 11.3963Z" fill="white"/>
</g>
<path d="M38.7812 15.8112C39.2678 14.9201 39.8975 14.0752 40.351 13.5122C40.592 13.2118 41.0732 13.3217 41.1609 13.697C41.3821 14.6428 41.6934 16.2387 41.7385 17.8962V17.897" fill="#FF5253"/>
<path d="M41.7379 17.897H41.6996C41.6558 16.2823 41.3621 14.7265 41.1231 13.7058C41.1053 13.6282 41.0659 13.5571 41.0095 13.501C40.953 13.4448 40.8818 13.4059 40.804 13.3886C40.7267 13.37 40.6457 13.3741 40.5706 13.4002C40.4955 13.4264 40.4295 13.4736 40.3805 13.5361C39.9356 14.0884 39.303 14.9348 38.8144 15.8296L38.7471 15.7928C39.238 14.8931 39.8741 14.043 40.3208 13.4881C40.3795 13.415 40.4576 13.3599 40.5462 13.3291C40.6348 13.2983 40.7302 13.2929 40.8216 13.3137C40.9131 13.3345 40.9968 13.3806 41.0633 13.4467C41.1298 13.5128 41.1764 13.5962 41.1978 13.6875C41.4374 14.7118 41.7322 16.2731 41.7763 17.8944L41.7379 17.897Z" fill="#363636"/>
<g opacity="0.6">
<path d="M38.3596 16.2778L40.441 17.6684C40.6221 17.7895 40.8279 17.8688 41.0434 17.9006C41.259 17.9325 41.4789 17.916 41.6873 17.8524L38.7809 15.8122C39.2675 14.9202 39.8972 14.0753 40.3506 13.5123C40.3521 13.51 40.354 13.5081 40.3563 13.5066C40.1808 13.2942 39.8332 13.2713 39.6396 13.5123C39.2636 13.9794 38.6677 14.7616 38.1976 15.5234C38.1216 15.6456 38.0959 15.7926 38.1261 15.9333C38.1564 16.0741 38.2401 16.1976 38.3596 16.2778Z" fill="white"/>
</g>
<g opacity="0.3">
<path d="M40.1758 13.7326C40.1921 13.7653 40.2046 13.7997 40.2129 13.8353C40.397 14.6197 40.6424 15.8531 40.7463 17.197L41.7386 17.897V17.8962C41.6935 16.2395 41.3823 14.6428 41.1611 13.697C41.0733 13.3217 40.5921 13.2118 40.3511 13.5122C40.2951 13.5817 40.2366 13.6552 40.1758 13.7326Z" fill="#363636"/>
</g>
<path d="M24.5796 17.897V17.8962C24.6245 16.2395 24.9359 14.6428 25.1571 13.697C25.2447 13.3217 25.7259 13.2118 25.9669 13.5122C26.4204 14.0755 27.0501 14.9201 27.5368 15.8112" fill="#FF5253"/>
<path d="M24.6182 17.8972L24.5415 17.8961C24.5855 16.274 24.8805 14.7126 25.12 13.6882C25.1413 13.5968 25.1879 13.5133 25.2544 13.4472C25.321 13.3811 25.4047 13.335 25.4962 13.3142C25.5877 13.2934 25.6831 13.2988 25.7717 13.3296C25.8603 13.3605 25.9384 13.4156 25.9971 13.4888C26.4438 14.0438 27.0795 14.8941 27.5707 15.7934L27.5035 15.8303C27.0149 14.9358 26.3821 14.0895 25.9373 13.5368C25.8883 13.4741 25.8223 13.4269 25.7472 13.4007C25.6721 13.3745 25.5911 13.3705 25.5138 13.3892C25.436 13.4065 25.3648 13.4455 25.3083 13.5016C25.2518 13.5578 25.2124 13.6288 25.1947 13.7064C24.956 14.7265 24.6621 16.2826 24.6182 17.8972Z" fill="#363636"/>
<g opacity="0.6">
<path d="M24.5795 17.9963L24.5859 17.6979C24.6491 16.1124 24.9446 14.6049 25.157 13.6971C25.1717 13.6317 25.2003 13.5702 25.241 13.5169C25.0016 13.4451 24.7211 13.577 24.6563 13.8543C24.458 14.7022 24.1874 16.0725 24.101 17.5413C24.0969 17.6042 24.1066 17.6672 24.1295 17.7259C24.1524 17.7846 24.188 17.8375 24.2336 17.8809C24.2793 17.9244 24.3339 17.9572 24.3937 17.9771C24.4535 17.9971 24.5169 18.0036 24.5795 17.9963Z" fill="white"/>
</g>
<g opacity="0.3">
<path d="M25.0728 14.0675C25.1012 14.09 25.127 14.1157 25.1495 14.1442C25.5958 14.6987 26.2137 15.5268 26.6965 16.403L27.5354 15.8112C27.0489 14.9201 26.4191 14.0755 25.9655 13.5122C25.7246 13.2118 25.2435 13.3217 25.1557 13.697C25.1297 13.8116 25.1024 13.9348 25.0728 14.0675Z" fill="#363636"/>
</g>
<path d="M31.7144 25.2323C31.7144 25.5499 32.1534 25.8064 32.6934 25.8051C33.2333 25.8037 33.6705 25.5452 33.6697 25.2275C33.669 24.9098 33.2312 24.8836 32.6912 24.8848C32.1512 24.886 31.7127 24.9147 31.7144 25.2323Z" fill="#363636"/>
<path d="M30.5947 25.557C30.6678 25.7849 30.7666 25.9968 30.9188 26.131C31.0653 26.2691 31.2517 26.3244 31.4417 26.3142C31.6318 26.3039 31.8252 26.2287 31.9848 26.1138C32.0649 26.0566 32.1371 25.9891 32.1995 25.9129L32.244 25.855L32.2926 25.7832C32.3357 25.7216 32.393 25.6711 32.4597 25.6363C32.5263 25.6014 32.6004 25.5831 32.6757 25.5829C32.7509 25.5827 32.8251 25.6007 32.8919 25.6352C32.9588 25.6698 33.0163 25.7199 33.0596 25.7814L33.1086 25.8529L33.1532 25.9107C33.216 25.9864 33.2886 26.0534 33.3689 26.1101C33.5298 26.2241 33.7226 26.3004 33.9133 26.308C34.104 26.3157 34.2898 26.262 34.4349 26.1221C34.5864 25.987 34.684 25.7747 34.7558 25.5462L34.7566 25.5439C34.7622 25.526 34.7739 25.5105 34.7898 25.5004C34.8057 25.4902 34.8246 25.486 34.8433 25.4885C34.862 25.4909 34.8792 25.4999 34.8919 25.5138C34.9046 25.5277 34.912 25.5457 34.9127 25.5645C34.9236 25.8225 34.8736 26.104 34.7029 26.3487C34.6137 26.472 34.4985 26.5742 34.3654 26.6481C34.2297 26.7211 34.0802 26.7645 33.9265 26.7754C33.6217 26.8001 33.3249 26.7092 33.0745 26.5536C32.9489 26.4743 32.8352 26.3775 32.737 26.266C32.7129 26.2375 32.6894 26.2084 32.6665 26.1787L32.6341 26.1327L32.6188 26.1095C32.6137 26.102 32.6057 26.0907 32.6103 26.0982C32.6175 26.1095 32.6274 26.1187 32.6391 26.1252C32.6509 26.1316 32.664 26.135 32.6774 26.135C32.6907 26.135 32.7039 26.1316 32.7156 26.1252C32.7273 26.1187 32.7372 26.1095 32.7444 26.0982C32.7489 26.0907 32.741 26.1022 32.736 26.1097L32.7206 26.1328L32.6884 26.1789L32.6186 26.2666C32.5205 26.3787 32.4069 26.4762 32.2811 26.5561C32.0316 26.7127 31.7352 26.8057 31.4301 26.782C31.2763 26.7719 31.1264 26.7293 30.9903 26.657C30.8569 26.5837 30.7412 26.4819 30.6514 26.359C30.4798 26.1149 30.4282 25.8337 30.4382 25.5755C30.4389 25.5567 30.4461 25.5388 30.4588 25.5248C30.4714 25.5108 30.4885 25.5018 30.5072 25.4992C30.5258 25.4966 30.5448 25.5007 30.5607 25.5108C30.5766 25.5208 30.5885 25.5361 30.5942 25.5541L30.5947 25.557Z" fill="#363636"/>
<path d="M37.7798 25.9884C38.8026 25.9859 39.6291 24.9322 39.6259 23.6349C39.6228 22.3376 38.7911 21.2879 37.7683 21.2904C36.7456 21.2929 35.9191 22.3466 35.9222 23.6439C35.9254 24.9412 36.7571 25.9909 37.7798 25.9884Z" fill="white"/>
<path d="M37.7764 26.2285C36.625 26.2285 35.686 25.0705 35.6826 23.6446C35.6793 22.2188 36.6147 21.0535 37.7679 21.0508H37.7721C38.9237 21.0508 39.8625 22.2086 39.8658 23.6345C39.8675 24.3156 39.6581 24.9588 39.2765 25.4446C38.8815 25.9482 38.3503 26.227 37.7805 26.227L37.7764 26.2285ZM37.7722 21.5305H37.7692C36.8804 21.5326 36.1595 22.4806 36.1623 23.6435C36.1651 24.8065 36.889 25.7488 37.7764 25.7488H37.7793C38.199 25.7477 38.5966 25.534 38.8991 25.1495C39.2147 24.7471 39.3877 24.2096 39.3863 23.6357C39.3834 22.474 38.6597 21.5303 37.7722 21.5303V21.5305Z" fill="#363636"/>
<path d="M37.476 25.7843C38.2954 25.7823 38.9575 24.9221 38.955 23.863C38.9524 22.8039 38.286 21.947 37.4666 21.949C36.6472 21.951 35.985 22.8112 35.9876 23.8703C35.9902 24.9294 36.6565 25.7863 37.476 25.7843Z" fill="#363636"/>
<path d="M37.8184 23.7233C38.0103 23.7229 38.1654 23.4947 38.1647 23.2137C38.164 22.9327 38.0078 22.7052 37.8159 22.7057C37.6239 22.7062 37.4688 22.9344 37.4695 23.2154C37.4702 23.4964 37.6264 23.7238 37.8184 23.7233Z" fill="white"/>
<path d="M29.5634 23.6444C29.5666 22.3471 28.7401 21.2934 27.7173 21.2909C26.6946 21.2884 25.8629 22.338 25.8597 23.6354C25.8566 24.9327 26.6831 25.9864 27.7058 25.9889C28.7286 25.9914 29.5603 24.9417 29.5634 23.6444Z" fill="white"/>
<path d="M27.7091 26.2289H27.705C27.1354 26.2275 26.604 25.9494 26.2092 25.4465C25.8273 24.9596 25.618 24.3166 25.6196 23.6355C25.6232 22.2098 26.5621 21.0518 27.7134 21.0518H27.7177C28.871 21.0545 29.8064 22.2176 29.803 23.6456C29.7996 25.0736 28.8611 26.2289 27.7091 26.2289ZM26.0993 23.6364C26.0979 24.2101 26.271 24.7476 26.5865 25.1501C26.8889 25.5355 27.2865 25.7484 27.7063 25.7495H27.7093C28.5968 25.7495 29.32 24.8059 29.3235 23.6442C29.327 22.4825 28.6054 21.5333 27.7166 21.5311H27.7135C26.8261 21.5311 26.1028 22.4747 26.0995 23.6364H26.0993Z" fill="#363636"/>
<path d="M29.4984 23.8709C29.501 22.8118 28.8388 21.9516 28.0194 21.9496C27.2 21.9476 26.5336 22.8045 26.5311 23.8636C26.5285 24.9227 27.1906 25.7829 28.01 25.7849C28.8295 25.7869 29.4958 24.9299 29.4984 23.8709Z" fill="#363636"/>
<path d="M28.0163 23.2155C28.017 22.9345 27.8619 22.7063 27.6699 22.7059C27.4779 22.7054 27.3218 22.9328 27.3211 23.2138C27.3204 23.4948 27.4755 23.723 27.6674 23.7235C27.8594 23.724 28.0156 23.4965 28.0163 23.2155Z" fill="white"/>
<path d="M33.9273 26.549C33.9273 26.8816 33.8293 27.1472 33.6712 27.3477C33.1972 27.9506 32.1851 27.9506 31.7111 27.3477C31.5531 27.1483 31.4551 26.8816 31.4551 26.549C31.9346 26.4527 32.3549 26.2764 32.6915 25.9888C33.04 26.3012 33.4373 26.5182 33.9273 26.549Z" fill="#363636"/>
<path d="M33.6711 27.3478C33.1971 27.9507 32.1849 27.9507 31.7109 27.3478C32.1842 26.7434 33.1978 26.7434 33.6711 27.3478Z" fill="#F42C4F"/>
<path d="M32.6912 28.0763C32.299 28.0763 31.9316 27.94 31.6566 27.6928C31.4386 27.4966 31.1787 27.1391 31.1787 26.5493H31.7317C31.7317 27.222 32.2137 27.5231 32.6912 27.5231C33.1688 27.5231 33.6508 27.222 33.6508 26.5493H34.203C34.2038 27.5518 33.4429 28.0763 32.6912 28.0763Z" fill="#363636"/>
<path d="M41.7388 18.1737C41.6709 18.1736 41.6053 18.1485 41.5547 18.1031C40.6264 17.2723 39.6498 16.5835 38.6526 16.0557C38.6202 16.0386 38.5915 16.0152 38.5683 15.9869C38.545 15.9587 38.5276 15.926 38.517 15.8909C38.5065 15.8559 38.5031 15.8191 38.5069 15.7826C38.5107 15.7462 38.5218 15.7109 38.5394 15.6788C39.0387 14.7633 39.6834 13.901 40.1366 13.339C40.2234 13.2311 40.3387 13.1498 40.4695 13.1044C40.6003 13.0589 40.7412 13.0512 40.8762 13.082C41.0112 13.1128 41.1348 13.1809 41.2329 13.2786C41.331 13.3763 41.3997 13.4996 41.4311 13.6344C41.6732 14.6693 41.9712 16.2476 42.0157 17.889C42.0157 17.8916 42.0157 17.8948 42.0157 17.8973C42.0157 17.9705 41.9866 18.0407 41.9348 18.0925C41.8831 18.1443 41.8128 18.1734 41.7396 18.1734L41.7388 18.1737ZM39.1602 15.7024C39.9361 16.1344 40.6975 16.6593 41.4326 17.2686C41.3427 15.9098 41.0968 14.6361 40.8919 13.7601C40.8841 13.7262 40.8669 13.6952 40.8423 13.6707C40.8177 13.6461 40.7867 13.629 40.7528 13.6212C40.7189 13.6134 40.6835 13.6153 40.6507 13.6266C40.6179 13.638 40.5889 13.6583 40.567 13.6854C40.1686 14.1802 39.6178 14.9133 39.1602 15.7024Z" fill="#363636"/>
<path d="M33.1269 32.5931C29.8047 32.5931 26.9336 31.8833 24.8242 30.5403C22.5246 29.0761 21.3091 26.9487 21.3091 24.3889C21.3091 23.3385 21.5191 22.2886 21.9334 21.2674C22.3089 18.0058 22.7342 14.8435 23.7333 11.9879C23.8432 11.6706 24.0251 11.383 24.2648 11.1477C24.5045 10.9124 24.7954 10.7359 25.1148 10.6318C25.4341 10.5278 25.7733 10.4992 26.1055 10.5482C26.4378 10.5971 26.7542 10.7224 27.03 10.9141C28.3952 11.8686 29.8119 13.2619 30.6809 14.4985C32.3252 14.1673 34.0387 14.1518 35.671 14.4535C36.5415 13.2283 37.9404 11.8572 39.2892 10.9143C39.565 10.7225 39.8814 10.5972 40.2137 10.5482C40.546 10.4992 40.8851 10.5279 41.2045 10.6319C41.5238 10.7359 41.8148 10.9125 42.0544 11.1478C42.2941 11.3831 42.4761 11.6707 42.586 11.9881C43.5959 14.8749 44.0196 18.0758 44.3984 21.3754C44.3984 21.3774 44.3984 21.3794 44.3984 21.3814C44.7606 22.3622 44.9442 23.3737 44.9442 24.3893C44.9442 26.9497 43.7288 29.077 41.4293 30.5406C39.3199 31.8833 36.4492 32.5931 33.1269 32.5931ZM22.4743 21.6169C22.1204 22.5267 21.9411 23.4577 21.9411 24.3883C21.9411 26.7219 23.0555 28.6648 25.1637 30.0071C27.1426 31.2671 29.9708 31.9611 33.1269 31.9611C36.2829 31.9611 39.1108 31.2671 41.0899 30.0071C43.1977 28.6648 44.3113 26.7219 44.3113 24.3883C44.3113 23.4233 44.1318 22.461 43.778 21.5282C43.7591 21.4785 43.7531 21.4248 43.7605 21.3722C43.3881 18.1354 42.969 14.9998 41.988 12.196C41.9098 11.969 41.7796 11.7635 41.608 11.5957C41.4363 11.428 41.2278 11.3026 40.9992 11.2295C40.774 11.1558 40.5347 11.1356 40.3003 11.1707C40.0659 11.2058 39.843 11.2952 39.6493 11.4317C38.2951 12.3783 36.8911 13.7709 36.0728 14.9795C36.0378 15.031 35.9885 15.071 35.931 15.0945C35.8734 15.1181 35.8102 15.1243 35.7492 15.1122C34.0618 14.7718 32.2747 14.7901 30.5738 15.1662C30.5316 15.1756 30.4879 15.1762 30.4454 15.168C30.403 15.1597 30.3626 15.1429 30.327 15.1184C30.2913 15.094 30.261 15.0625 30.238 15.0258C30.215 14.9892 30.1998 14.9482 30.1932 14.9055C29.3683 13.7145 27.9939 12.359 26.6672 11.4316C26.4736 11.2952 26.2508 11.2059 26.0166 11.1708C25.7824 11.1357 25.5433 11.1558 25.3182 11.2294C25.0895 11.3024 24.881 11.4277 24.7093 11.5955C24.5376 11.7633 24.4075 11.9688 24.3292 12.1958C23.349 14.9973 22.9299 18.1302 22.5578 21.3637C22.557 21.3752 22.5557 21.3866 22.5538 21.398C22.5519 21.4142 22.5501 21.4302 22.5482 21.4463C22.5414 21.5093 22.5156 21.5688 22.4743 21.6169Z" fill="#363636"/>
<path d="M24.5792 18.1736C24.5403 18.1736 24.5019 18.1654 24.4664 18.1496C24.4309 18.1338 24.3991 18.1106 24.3732 18.0816C24.3472 18.0527 24.3277 18.0186 24.3159 17.9815C24.304 17.9445 24.3001 17.9054 24.3044 17.8668C24.3198 17.7331 24.6652 14.5849 24.8874 13.6338C24.9188 13.499 24.9876 13.3757 25.0857 13.278C25.1839 13.1803 25.3076 13.1122 25.4426 13.0814C25.5777 13.0507 25.7186 13.0585 25.8494 13.104C25.9802 13.1495 26.0956 13.2309 26.1824 13.3389C26.6349 13.9011 27.2796 14.7636 27.7793 15.6785C27.8136 15.7411 27.8223 15.8146 27.8036 15.8835C27.7849 15.9524 27.7402 16.0114 27.6789 16.048C26.7572 16.602 25.7996 17.2774 24.7518 18.1131C24.7027 18.1522 24.6419 18.1735 24.5792 18.1736ZM25.609 13.6159C25.5944 13.616 25.5798 13.6176 25.5655 13.6208C25.5313 13.628 25.4998 13.645 25.475 13.6697C25.4502 13.6944 25.433 13.7257 25.4256 13.7599C25.2709 14.4217 25.0443 16.2748 24.9282 17.2728C25.7116 16.6707 26.4488 16.157 27.1643 15.7147C26.7055 14.9215 26.1518 14.1835 25.7509 13.6861C25.7343 13.6642 25.7129 13.6464 25.6882 13.6342C25.6636 13.622 25.6364 13.6157 25.609 13.6159Z" fill="#363636"/>
<g opacity="0.2">
<path d="M34.2674 15.7109C35.6725 15.9349 36.8101 16.354 37.6218 17.0108C37.9096 17.2437 37.7964 17.7091 37.4349 17.7893C35.8107 18.15 34.5556 17.762 33.802 16.3578C33.6288 16.035 33.9057 15.6532 34.2674 15.7109Z" fill="white"/>
</g>
<g opacity="0.2">
<path d="M39.3923 19.2753C39.655 19.0775 39.6473 18.6242 39.3752 18.2629C39.103 17.9016 38.6695 17.7689 38.4067 17.9667C38.144 18.1644 38.3147 18.4956 38.5862 18.8564C38.8577 19.2172 39.1296 19.4723 39.3923 19.2753Z" fill="white"/>
</g>
<g opacity="0.3">
<path d="M27.9244 26.3129C27.6555 26.407 27.3726 26.4553 27.0876 26.4558C26.7475 26.4558 26.4096 26.4021 26.0862 26.2965L24.248 21.5637C24.6009 21.0927 25.1198 20.7798 25.7053 20.5986L27.9244 26.3129Z" fill="white"/>
</g>
<g opacity="0.3">
<path d="M39.8396 26.1589C39.4141 26.3537 38.9518 26.4548 38.4839 26.4555C38.3593 26.4555 38.235 26.446 38.1119 26.4272L36.1069 21.2641C36.4961 20.8742 37.026 20.6092 37.6356 20.4844L39.8396 26.1589Z" fill="white"/>
</g>
<g opacity="0.3">
<path d="M41.4616 24.61C41.2492 25.0251 40.9537 25.3919 40.5933 25.6877L38.5405 20.4009C39.0073 20.4056 39.4775 20.4722 39.9093 20.6117L41.4616 24.61Z" fill="white"/>
</g>
<g opacity="0.3">
<path d="M29.7837 24.61C29.5712 25.025 29.2756 25.3919 28.9153 25.6877L26.8623 20.4009C27.3289 20.4056 27.7991 20.4722 28.2309 20.6117L29.7837 24.61Z" fill="white"/>
</g>
<path d="M44.3284 20.7075C43.9201 20.7479 43.508 20.6892 43.1271 20.5366C42.996 20.4845 42.8759 20.4082 42.7619 20.3252C39.8976 18.2152 36.4064 19.0615 33.9422 20.7932C33.1714 20.1081 32.4005 20.1081 31.6297 20.7932C29.1654 19.0615 25.6744 18.2152 22.8099 20.3252C22.6961 20.4082 22.5758 20.4845 22.4448 20.5366C22.0642 20.6893 21.6524 20.7479 21.2443 20.7075C21.2202 20.7049 21.1958 20.7073 21.1727 20.7148C21.1496 20.7222 21.1283 20.7344 21.1103 20.7506C21.0922 20.7668 21.0777 20.7866 21.0678 20.8088C21.0579 20.8309 21.0528 20.8549 21.0527 20.8792V21.4791C21.0531 21.5193 21.0675 21.5582 21.0934 21.589C21.1193 21.6198 21.1552 21.6406 21.1948 21.6478C21.8237 21.7687 22.1627 22.2697 22.2787 23.0626C23.9075 30.4258 31.7272 28.3703 31.7547 22.2114C31.7554 22.0708 31.8049 21.9349 31.8948 21.8268C31.9848 21.7187 32.1094 21.6453 32.2476 21.619C32.614 21.5477 32.9744 21.5423 33.3272 21.6081C33.4652 21.6343 33.5897 21.7078 33.6793 21.816C33.7689 21.9241 33.818 22.0601 33.8181 22.2005C33.8366 28.3672 41.6645 30.4298 43.294 23.0626C43.4094 22.2697 43.7484 21.7687 44.3772 21.6478C44.4168 21.6407 44.4528 21.6199 44.4787 21.5891C44.5046 21.5583 44.519 21.5194 44.5192 21.4791V20.8792C44.5193 20.8549 44.5143 20.8309 44.5045 20.8088C44.4946 20.7867 44.4803 20.7668 44.4622 20.7506C44.4442 20.7344 44.423 20.7222 44.3999 20.7148C44.3769 20.7073 44.3525 20.7049 44.3284 20.7075ZM27.0876 26.4555C25.3751 26.4555 23.9028 25.0903 23.7742 23.423C23.6055 21.2257 25.3755 20.3999 27.0876 20.3999C28.7997 20.3999 30.1621 21.3541 30.1621 23.0269C30.1621 24.6997 28.801 26.4555 27.0876 26.4555ZM41.7987 23.423C41.6697 25.0903 40.1974 26.4555 38.4853 26.4555C36.7732 26.4555 35.4108 24.6983 35.4108 23.0269C35.4108 21.3555 36.7727 20.3999 38.4853 20.3999C40.1978 20.3999 41.9671 21.2257 41.7982 23.423H41.7987Z" fill="#F42C4F"/>
<path d="M26.9356 27.8034C25.9845 27.8034 25.0655 27.4701 24.308 26.8434C23.3211 26.0269 22.6065 24.7224 22.2411 23.0709C22.1209 22.251 21.7766 21.7987 21.1873 21.6855C21.139 21.6765 21.0953 21.651 21.0638 21.6133C21.0322 21.5757 21.0146 21.5282 21.0142 21.479V20.8791C21.0142 20.8495 21.0204 20.8202 21.0325 20.7931C21.0446 20.766 21.0623 20.7418 21.0843 20.722C21.1064 20.7022 21.1324 20.6873 21.1606 20.6782C21.1888 20.6691 21.2186 20.6661 21.2481 20.6692C21.6501 20.7084 22.0555 20.6505 22.4305 20.5005C22.5403 20.4569 22.6537 20.3911 22.7872 20.2939C25.7283 18.1276 29.276 19.1029 31.6268 20.7443C32.396 20.0742 33.1762 20.0744 33.9447 20.7443C36.2951 19.1029 39.8432 18.1274 42.7845 20.294C42.9178 20.3911 43.0312 20.4569 43.141 20.5005C43.5162 20.6505 43.9219 20.7083 44.3241 20.6692C44.3535 20.6661 44.3832 20.6691 44.4114 20.6783C44.4396 20.6874 44.4655 20.7023 44.4875 20.7221C44.5095 20.7419 44.5271 20.7661 44.5391 20.7932C44.5511 20.8202 44.5573 20.8495 44.5572 20.8791V21.479C44.5568 21.5282 44.5392 21.5757 44.5077 21.6133C44.4761 21.651 44.4324 21.6765 44.384 21.6855C43.7948 21.7987 43.4506 22.251 43.3317 23.0681C42.9657 24.7231 42.2505 26.0287 41.2631 26.8442C40.3898 27.5663 39.301 27.8984 38.1979 27.78C37.0365 27.6548 35.9493 27.0602 35.1369 26.1057C34.2533 25.0675 33.7839 23.7173 33.7795 22.2009C33.7791 22.0694 33.7329 21.9422 33.649 21.841C33.565 21.7398 33.4485 21.6709 33.3193 21.6463C32.9794 21.582 32.6207 21.5849 32.2541 21.6571C32.1249 21.6821 32.0083 21.751 31.9241 21.8521C31.8399 21.9533 31.7933 22.0804 31.7922 22.212C31.7856 23.7264 31.3148 25.0743 30.4311 26.1103C29.6181 27.0631 28.5317 27.6563 27.3711 27.7804C27.2264 27.7958 27.081 27.8034 26.9356 27.8034ZM21.2255 20.7449C21.1922 20.7448 21.1601 20.7571 21.1353 20.7794C21.1213 20.7919 21.11 20.8072 21.1023 20.8244C21.0946 20.8416 21.0907 20.8603 21.0909 20.8791V21.479C21.0913 21.5104 21.1026 21.5406 21.1229 21.5645C21.1431 21.5884 21.1711 21.6046 21.2019 21.6102C21.8183 21.7286 22.1932 22.2154 22.3165 23.0569C23.1427 26.7922 25.4654 27.9074 27.3634 27.7037C29.5153 27.4736 31.7014 25.5129 31.716 22.212C31.7172 22.0627 31.77 21.9183 31.8655 21.8035C31.961 21.6887 32.0933 21.6105 32.24 21.5821C32.6164 21.5088 32.9846 21.5054 33.334 21.5711C33.4804 21.5995 33.6125 21.6778 33.7076 21.7927C33.8027 21.9076 33.855 22.0519 33.8556 22.2011C33.8654 25.5072 36.0513 27.4719 38.2055 27.704C40.1042 27.9083 42.4285 26.7948 43.2556 23.0549C43.3783 22.2163 43.7523 21.7294 44.369 21.611C44.3998 21.6054 44.4278 21.5892 44.448 21.5653C44.4682 21.5414 44.4795 21.5111 44.4799 21.4798V20.8799C44.48 20.861 44.4761 20.8424 44.4685 20.8251C44.4609 20.8079 44.4497 20.7925 44.4357 20.7799C44.4217 20.7673 44.4051 20.7578 44.3872 20.752C44.3693 20.7462 44.3503 20.7443 44.3316 20.7464C43.9171 20.7868 43.499 20.7273 43.1122 20.5729C42.9961 20.5269 42.8773 20.4582 42.7385 20.3569C39.8198 18.2067 36.2917 19.1892 33.964 20.8254L33.9392 20.8429L33.9165 20.8228C33.1556 20.1465 32.4158 20.1466 31.6551 20.8228L31.6324 20.8429L31.6069 20.8248C29.2784 19.1885 25.7505 18.2063 22.8324 20.3562C22.6934 20.4576 22.5747 20.5261 22.4586 20.5723C22.072 20.7267 21.6541 20.7862 21.2398 20.7458C21.2351 20.7452 21.2303 20.7449 21.2255 20.7449ZM38.484 26.4938C36.7024 26.4938 35.3712 24.6635 35.3712 23.027C35.3712 21.4329 36.6221 20.3618 38.484 20.3618C39.6253 20.3618 40.6148 20.7236 41.1991 21.3543C41.6871 21.8813 41.9016 22.5782 41.8365 23.4252C41.7054 25.1175 40.2014 26.4938 38.484 26.4938ZM38.484 20.4384C36.668 20.4384 35.4479 21.4786 35.4479 23.0269C35.4479 24.6273 36.7462 26.417 38.484 26.417C40.1623 26.417 41.6319 25.0724 41.7598 23.4197C41.8232 22.5941 41.6156 21.9164 41.1427 21.4059C40.573 20.791 39.6039 20.4384 38.484 20.4384ZM27.0876 26.4938C25.3695 26.4938 23.8662 25.1175 23.7353 23.4258C23.6701 22.578 23.8844 21.8811 24.3725 21.3549C24.9567 20.7242 25.9463 20.3624 27.0877 20.3624C28.9495 20.3624 30.2005 21.4335 30.2005 23.0276C30.2004 24.6635 28.869 26.4938 27.0876 26.4938ZM27.0876 20.4384C25.9678 20.4384 24.9984 20.7912 24.4288 21.4062C23.9559 21.9168 23.7484 22.5944 23.8117 23.42C23.9397 25.0726 25.4092 26.4171 27.0876 26.4171C28.8251 26.4171 30.1237 24.6273 30.1237 23.027C30.1237 21.4786 28.9035 20.4384 27.0876 20.4384Z" fill="#363636"/>
<g opacity="0.55">
<path d="M44.3284 20.7075C43.9201 20.7479 43.508 20.6892 43.1271 20.5366C42.996 20.4845 42.8759 20.4082 42.7619 20.3252C39.8976 18.2152 36.4064 19.0615 33.9422 20.7932C33.1714 20.1081 32.4005 20.1081 31.6297 20.7932C29.1654 19.0615 25.6744 18.2152 22.8099 20.3252C22.6961 20.4082 22.5758 20.4845 22.4448 20.5366C22.0642 20.6893 21.6524 20.7479 21.2443 20.7075C21.2202 20.7049 21.1958 20.7073 21.1727 20.7148C21.1496 20.7222 21.1283 20.7344 21.1103 20.7506C21.0922 20.7668 21.0777 20.7866 21.0678 20.8088C21.0579 20.8309 21.0528 20.8549 21.0527 20.8792V21.4621C21.0527 21.4378 21.0579 21.4138 21.0678 21.3917C21.0777 21.3695 21.0921 21.3497 21.1102 21.3335C21.1283 21.3173 21.1496 21.3051 21.1727 21.2977C21.1958 21.2903 21.2202 21.2879 21.2443 21.2906C21.6524 21.3309 22.0642 21.2722 22.4448 21.1195C22.5758 21.0674 22.6961 20.9913 22.8099 20.9081C25.6744 18.7981 29.1654 19.6444 31.6304 21.3763C32.4013 20.6911 33.1722 20.6911 33.9429 21.3763C36.4072 19.6444 39.8984 18.7981 42.7634 20.9081C42.8774 20.9913 42.9975 21.0674 43.1287 21.1195C43.5096 21.2722 43.9216 21.3309 44.33 21.2906C44.354 21.2879 44.3784 21.2904 44.4014 21.2978C44.4244 21.3053 44.4457 21.3175 44.4637 21.3337C44.4817 21.3498 44.496 21.3697 44.5059 21.3918C44.5157 21.4139 44.5207 21.4379 44.5206 21.4621V20.8792C44.5207 20.8548 44.5157 20.8307 44.5058 20.8084C44.4958 20.7862 44.4813 20.7663 44.4632 20.7501C44.445 20.7338 44.4236 20.7216 44.4004 20.7143C44.3771 20.707 44.3526 20.7047 44.3284 20.7075ZM41.7973 23.4366C41.6614 25.0978 40.1924 26.4555 38.4839 26.4555C36.8723 26.4555 35.5708 24.8987 35.4239 23.322C35.4142 23.4178 35.4094 23.514 35.4094 23.6103C35.4094 25.2823 36.7713 27.0389 38.4839 27.0389C40.1964 27.0389 41.6689 25.6737 41.7973 24.0064C41.813 23.8168 41.8129 23.6262 41.7969 23.4366H41.7973ZM30.1481 23.322C30.0013 24.8987 28.7005 26.4555 27.0881 26.4555C25.3803 26.4555 23.9115 25.0978 23.7756 23.4366C23.7593 23.6262 23.7588 23.8167 23.7742 24.0064C23.9032 25.6737 25.3755 27.0389 27.0876 27.0389C28.7997 27.0389 30.1621 25.2817 30.1621 23.6103C30.1622 23.514 30.1574 23.4178 30.1477 23.322H30.1481Z" fill="white"/>
</g>
<path d="M26.9354 28.0285C25.9324 28.0285 24.9631 27.6772 24.1647 27.0168C23.1389 26.1682 22.3979 24.8206 22.0217 23.1195C22.0203 23.1134 22.0192 23.1071 22.0183 23.1008C21.8802 22.1543 21.4539 21.9657 21.1454 21.9067C21.0457 21.8878 20.9557 21.8347 20.8908 21.7567C20.8259 21.6787 20.7901 21.5806 20.7896 21.4791V20.8791C20.7895 20.8179 20.8024 20.7574 20.8273 20.7015C20.8522 20.6456 20.8886 20.5956 20.9341 20.5546C20.9796 20.5137 21.0333 20.4829 21.0915 20.4641C21.1497 20.4452 21.2113 20.4389 21.2721 20.4455C21.6379 20.481 22.0068 20.4284 22.3481 20.2921C22.4401 20.2557 22.5372 20.1986 22.6549 20.1127C25.6322 17.9191 29.2009 18.8371 31.615 20.4637C32.3846 19.8671 33.1878 19.8671 33.9574 20.4637C36.3715 18.8377 39.94 17.9194 42.9184 20.1135C43.0353 20.1986 43.1332 20.2557 43.2252 20.2922C43.5664 20.4284 43.9351 20.481 44.3007 20.4456C44.3616 20.4391 44.4231 20.4454 44.4813 20.4642C44.5396 20.483 44.5932 20.5139 44.6387 20.5548C44.6843 20.5957 44.7207 20.6457 44.7456 20.7016C44.7705 20.7575 44.7833 20.8181 44.7833 20.8793V21.4792C44.7828 21.5807 44.747 21.6788 44.6822 21.7567C44.6173 21.8347 44.5274 21.8878 44.4277 21.9067C44.1191 21.9661 43.6931 22.1545 43.5546 23.101C43.5536 23.1073 43.5526 23.1135 43.5512 23.1197C43.1748 24.8213 42.4332 26.1694 41.4067 27.018C40.4863 27.779 39.3379 28.129 38.1739 28.0036C36.9548 27.8723 35.8155 27.25 34.9657 26.2513C34.0473 25.1722 33.5593 23.7718 33.5544 22.2016C33.5543 22.1225 33.5267 22.0459 33.4763 21.9849C33.426 21.9239 33.3559 21.8824 33.2783 21.8673C32.9666 21.8084 32.6366 21.8118 32.2978 21.8776C32.2197 21.8926 32.1492 21.9342 32.0983 21.9953C32.0473 22.0563 32.0191 22.1331 32.0183 22.2126C32.0112 23.7808 31.5219 25.1789 30.6032 26.2561C29.7529 27.2532 28.6137 27.8735 27.3956 28.0039C27.2427 28.0203 27.0891 28.0285 26.9354 28.0285ZM32.8259 21.2984C33.0108 21.2981 33.1953 21.3151 33.3769 21.3493C33.575 21.3872 33.7536 21.4928 33.8824 21.648C34.0111 21.8032 34.0819 21.9983 34.0826 22.1999C34.0919 25.3734 36.1766 27.258 38.2311 27.4795C40.0322 27.6743 42.2384 26.602 43.0352 23.0155C43.1706 22.1065 43.5814 21.5651 44.257 21.4048V20.9782C43.8389 21.0033 43.4205 20.9361 43.0313 20.7814C42.8971 20.728 42.7627 20.6507 42.6081 20.5381C39.7845 18.458 36.3593 19.4183 34.0944 21.0089C34.0458 21.043 33.9872 21.0597 33.9279 21.0563C33.8687 21.0529 33.8123 21.0296 33.768 20.9902C33.0984 20.3953 32.4749 20.3953 31.8055 20.9902C31.7612 21.0297 31.7048 21.053 31.6455 21.0564C31.5862 21.0598 31.5275 21.043 31.4789 21.0089C29.2146 19.4175 25.7895 18.458 22.9669 20.5373C22.8114 20.6507 22.677 20.728 22.5429 20.7814C22.1536 20.9359 21.7352 21.0031 21.3171 20.9782V21.4042C21.9921 21.564 22.4035 22.1056 22.5388 23.0149C23.3351 26.6 25.5396 27.6721 27.3402 27.4788C29.3927 27.2593 31.4777 25.3788 31.4917 22.2092C31.4933 22.0079 31.5644 21.8134 31.693 21.6585C31.8216 21.5036 31.9997 21.3979 32.1973 21.3593C32.4042 21.319 32.6145 21.2986 32.8253 21.2984H32.8259ZM38.4853 26.7191C36.5747 26.7191 35.1472 24.7698 35.1472 23.027C35.1472 21.2981 36.4887 20.1365 38.4853 20.1365C39.689 20.1365 40.7388 20.5246 41.3654 21.2013C41.8978 21.776 42.1324 22.5303 42.062 23.4432C41.9216 25.2496 40.3171 26.7191 38.4847 26.7191H38.4853ZM38.4853 20.6636C37.0861 20.6636 35.6744 21.3944 35.6744 23.027C35.6744 24.521 36.8765 26.192 38.4853 26.192C40.0486 26.192 41.4174 24.9407 41.5364 23.4025C41.5949 22.6423 41.4073 22.0219 40.9787 21.5594C40.4508 20.9902 39.5421 20.6636 38.4847 20.6636H38.4853ZM27.0877 26.7191C25.2552 26.7191 23.6506 25.2496 23.5109 23.4434C23.4408 22.5303 23.675 21.776 24.2075 21.2013C24.8341 20.5246 25.8838 20.1365 27.0877 20.1365C29.0842 20.1365 30.4257 21.2981 30.4257 23.027C30.426 24.7698 28.9994 26.7191 27.0882 26.7191H27.0877ZM27.0877 20.6636C26.0302 20.6636 25.1214 20.9902 24.5942 21.5594C24.1656 22.0221 23.978 22.6423 24.0364 23.4027C24.1555 24.9407 25.5244 26.192 27.0877 26.192C28.6964 26.192 29.8984 24.521 29.8984 23.027C29.8989 21.3944 28.4872 20.6636 27.0882 20.6636H27.0877Z" fill="#363636"/>
<path d="M22.8734 43.3623H45.8466C46.0045 43.3623 46.156 43.4251 46.2678 43.5368C46.3795 43.6485 46.4422 43.8 46.4422 43.958V48.5928C46.4422 48.7508 46.3795 48.9023 46.2678 49.014C46.156 49.1257 46.0045 49.1884 45.8466 49.1884H22.8734C22.5247 49.1884 22.1903 49.0499 21.9437 48.8033C21.6971 48.5568 21.5586 48.2224 21.5586 47.8736V44.6771C21.5586 44.3284 21.6971 43.994 21.9437 43.7474C22.1903 43.5008 22.5247 43.3623 22.8734 43.3623Z" fill="#6E76F1"/>
<g opacity="0.7">
<path d="M45.8466 43.3623H22.8734C22.5247 43.3623 22.1903 43.5008 21.9437 43.7474C21.6971 43.994 21.5586 44.3284 21.5586 44.6771V47.8736C21.5584 48.0884 21.6111 48.3 21.712 48.4895C21.712 48.4888 21.712 48.488 21.712 48.4872V45.2907C21.712 44.942 21.8505 44.6076 22.0971 44.361C22.3437 44.1144 22.6781 43.9759 23.0268 43.9759H24.736C24.8796 44.2345 25.7239 44.433 26.744 44.433C27.7641 44.433 28.6084 44.2345 28.752 43.9759H46C46.0834 43.9759 46.166 43.9935 46.2422 44.0275C46.3184 44.0616 46.3865 44.1113 46.4422 44.1735V43.9587C46.4423 43.8804 46.427 43.8029 46.3971 43.7305C46.3673 43.6582 46.3234 43.5924 46.2681 43.537C46.2127 43.4816 46.147 43.4377 46.0747 43.4077C46.0024 43.3777 45.9249 43.3623 45.8466 43.3623Z" fill="white"/>
</g>
<path d="M24.1715 43.354H23.2349V49.1887H24.1715V43.354Z" fill="white"/>
<path d="M26.0109 43.354H25.0742V49.1887H26.0109V43.354Z" fill="white"/>
<g opacity="0.3">
<path d="M45.8466 47.6546H22.8734C22.5247 47.6546 22.1903 47.5161 21.9437 47.2695C21.6971 47.023 21.5586 46.6885 21.5586 46.3398V47.8738C21.5586 48.2225 21.6971 48.557 21.9437 48.8035C22.1903 49.0501 22.5247 49.1886 22.8734 49.1886H45.8466C45.9248 49.1887 46.0023 49.1733 46.0745 49.1433C46.1468 49.1134 46.2125 49.0695 46.2678 49.0142C46.3231 48.9589 46.367 48.8932 46.3969 48.821C46.4268 48.7487 46.4422 48.6712 46.4422 48.593V47.059C46.4422 47.1372 46.4268 47.2147 46.3969 47.287C46.367 47.3592 46.3231 47.4249 46.2678 47.4802C46.2125 47.5355 46.1468 47.5794 46.0745 47.6093C46.0023 47.6393 45.9248 47.6547 45.8466 47.6546Z" fill="#363636"/>
</g>
<path d="M45.8462 49.4954H22.8732C22.4433 49.4949 22.031 49.324 21.727 49.02C21.423 48.716 21.252 48.3038 21.2515 47.8738V44.6773C21.252 44.2473 21.423 43.8351 21.727 43.5311C22.031 43.2271 22.4433 43.0561 22.8732 43.0557H45.8462C46.0855 43.0559 46.3149 43.1511 46.4841 43.3203C46.6532 43.4895 46.7484 43.7189 46.7487 43.9581V48.5929C46.7484 48.8322 46.6532 49.0616 46.4841 49.2308C46.3149 49.3999 46.0855 49.4951 45.8462 49.4954ZM22.8732 43.6693C22.6059 43.6695 22.3497 43.7758 22.1607 43.9648C21.9717 44.1538 21.8654 44.41 21.8651 44.6773V47.8738C21.8654 48.1411 21.9717 48.3973 22.1607 48.5863C22.3497 48.7752 22.6059 48.8815 22.8732 48.8818H45.8462C45.9228 48.8817 45.9962 48.8512 46.0504 48.7971C46.1045 48.7429 46.135 48.6695 46.1351 48.5929V43.9577C46.135 43.8811 46.1045 43.8077 46.0504 43.7535C45.9962 43.6994 45.9228 43.6689 45.8462 43.6688L22.8732 43.6693Z" fill="#363636"/>
<path d="M33.7493 44.6938H46.4417V47.8988H33.7493C33.616 47.8988 33.484 47.8726 33.3609 47.8216C33.2378 47.7706 33.1259 47.6958 33.0316 47.6016C32.9374 47.5073 32.8626 47.3955 32.8116 47.2723C32.7606 47.1492 32.7344 47.0172 32.7344 46.8839V45.7087C32.7344 45.5755 32.7606 45.4435 32.8116 45.3204C32.8626 45.1972 32.9374 45.0853 33.0316 44.9911C33.1259 44.8969 33.2378 44.8221 33.3609 44.7711C33.484 44.7201 33.616 44.6938 33.7493 44.6938Z" fill="white"/>
<g opacity="0.3">
<path d="M34.6697 47.208C34.5364 47.208 34.4044 47.1818 34.2813 47.1308C34.1582 47.0798 34.0463 47.005 33.952 46.9108C33.8578 46.8165 33.783 46.7047 33.732 46.5815C33.681 46.4584 33.6548 46.3264 33.6548 46.1931V45.0179C33.6549 44.9084 33.6729 44.7996 33.708 44.6958C33.4464 44.7062 33.199 44.8174 33.0175 45.0061C32.836 45.1948 32.7346 45.4464 32.7344 45.7082V46.8834C32.7344 47.0167 32.7606 47.1487 32.8116 47.2718C32.8626 47.395 32.9374 47.5068 33.0316 47.6011C33.1259 47.6953 33.2378 47.7701 33.3609 47.8211C33.484 47.8721 33.616 47.8983 33.7493 47.8983H46.4417V47.208H34.6697Z" fill="#363636"/>
</g>
<path d="M46.4422 48.1796H33.7497C33.406 48.1792 33.0766 48.0425 32.8336 47.7995C32.5906 47.5565 32.454 47.227 32.4536 46.8834V45.7083C32.454 45.3647 32.5906 45.0352 32.8336 44.7922C33.0766 44.5492 33.406 44.4125 33.7497 44.4121H46.4422C46.5167 44.4121 46.5883 44.4417 46.641 44.4945C46.6938 44.5472 46.7234 44.6187 46.7235 44.6933V47.8983C46.7235 47.9729 46.6938 48.0445 46.6411 48.0972C46.5883 48.15 46.5168 48.1796 46.4422 48.1796ZM33.7497 44.9746C33.5552 44.9748 33.3687 45.0522 33.2312 45.1898C33.0936 45.3273 33.0163 45.5138 33.0161 45.7083V46.8834C33.0163 47.0779 33.0937 47.2644 33.2312 47.4019C33.3687 47.5395 33.5552 47.6169 33.7497 47.6171H46.161V44.9746H33.7497Z" fill="#363636"/>
<g opacity="0.4">
<path d="M43.3623 45.6419C43.6189 45.6097 43.8756 45.5945 44.1322 45.5836L44.9021 45.5581C45.1588 45.5486 45.4154 45.5446 45.6719 45.5382C45.9284 45.5318 46.1852 45.5288 46.4418 45.5269V45.757C46.1852 45.755 45.9285 45.7519 45.6719 45.7456C45.4153 45.7393 45.1588 45.735 44.9021 45.7255L44.1322 45.7002C43.8756 45.6892 43.6189 45.6741 43.3623 45.6419Z" fill="#363636"/>
<path d="M32.7583 45.5267C34.2075 45.5174 35.6566 45.5251 37.1058 45.5335L39.2796 45.5559C40.0041 45.5654 40.7288 45.5559 41.4533 45.6418C40.7288 45.7271 40.0041 45.7185 39.2796 45.7275L37.1058 45.7499C35.6566 45.7585 34.2075 45.7662 32.7583 45.7568V45.5267Z" fill="#363636"/>
<path d="M38.9185 46.3341C39.5456 46.2492 40.1725 46.2522 40.7994 46.2445L42.6803 46.2227L44.5611 46.2132C45.1881 46.2123 45.815 46.2132 46.442 46.219V46.4491C45.815 46.455 45.188 46.4568 44.5611 46.4548L42.6803 46.4454L40.7994 46.4235C40.1725 46.416 39.5456 46.4189 38.9185 46.3341Z" fill="#363636"/>
<path d="M32.7583 46.2193C33.1515 46.216 33.5447 46.216 33.9378 46.2193L35.1171 46.2321L36.2965 46.2551C36.6896 46.2613 37.0828 46.2693 37.476 46.3343C37.0828 46.3992 36.6896 46.4073 36.2965 46.4135L35.1171 46.4365L33.9378 46.4494C33.5446 46.4521 33.1514 46.4521 32.7583 46.4494V46.2193Z" fill="#363636"/>
<path d="M42.6802 47.0261C42.9936 46.9801 43.3071 46.9602 43.6205 46.9482L44.561 46.9244C44.8744 46.9151 45.188 46.9141 45.5015 46.9103C45.6582 46.9079 45.8149 46.9071 45.9717 46.9082C46.1285 46.9082 46.2851 46.9082 46.4418 46.9111V47.1412C46.2851 47.1439 46.1285 47.1438 45.9717 47.1441C45.8149 47.1444 45.6581 47.1441 45.5015 47.1419C45.188 47.1381 44.8744 47.1372 44.561 47.1278L43.6205 47.1041C43.3071 47.0921 42.9936 47.0723 42.6802 47.0261Z" fill="#363636"/>
<path d="M32.7583 46.9111L34.6959 46.9217L36.6333 46.9403L38.5708 46.9654C39.2166 46.9733 39.8626 46.9808 40.5082 47.0268C39.8626 47.0728 39.2166 47.0797 38.5708 47.0882L36.6333 47.1133L34.6959 47.1319L32.7583 47.1425V46.9111Z" fill="#363636"/>
</g>
<path d="M45.1271 55.0146H22.1539C21.9959 55.0146 21.8444 54.9519 21.7327 54.8402C21.621 54.7285 21.5583 54.577 21.5583 54.419V49.7837C21.5583 49.6257 21.621 49.4742 21.7327 49.3625C21.8444 49.2508 21.9959 49.1881 22.1539 49.1881H45.1271C45.4758 49.1881 45.8102 49.3266 46.0568 49.5732C46.3034 49.8197 46.4419 50.1541 46.4419 50.5028V53.6999C46.4419 54.0486 46.3034 54.383 46.0568 54.6296C45.8102 54.8761 45.4758 55.0146 45.1271 55.0146Z" fill="#F42C4F"/>
<path d="M43.829 55.0146H44.7656V49.1799H43.829V55.0146Z" fill="#FFBC1F"/>
<path d="M41.9896 55.0146H42.9263V49.1799H41.9896V55.0146Z" fill="#FFBC1F"/>
<g opacity="0.3">
<path d="M22.1542 53.4808H45.1274C45.3001 53.4808 45.4711 53.4468 45.6306 53.3807C45.7901 53.3146 45.935 53.2178 46.0571 53.0957C46.1792 52.9736 46.2761 52.8287 46.3421 52.6692C46.4082 52.5096 46.4422 52.3387 46.4422 52.166V53.7C46.4422 53.8727 46.4082 54.0436 46.3421 54.2032C46.2761 54.3627 46.1792 54.5076 46.0571 54.6297C45.935 54.7518 45.7901 54.8486 45.6306 54.9147C45.4711 54.9808 45.3001 55.0148 45.1274 55.0148H22.1542C22.076 55.0148 21.9986 54.9994 21.9263 54.9695C21.854 54.9396 21.7883 54.8957 21.733 54.8404C21.6777 54.7851 21.6338 54.7194 21.6039 54.6471C21.574 54.5748 21.5586 54.4974 21.5586 54.4192V52.8856C21.5587 53.0435 21.6215 53.1949 21.7332 53.3065C21.8449 53.4182 21.9963 53.4808 22.1542 53.4808Z" fill="#363636"/>
</g>
<g opacity="0.7">
<path d="M22.1542 49.1885H45.1274C45.3001 49.1885 45.4711 49.2225 45.6306 49.2886C45.7901 49.3546 45.935 49.4515 46.0571 49.5736C46.1792 49.6957 46.2761 49.8406 46.3421 50.0001C46.4082 50.1596 46.4422 50.3306 46.4422 50.5033V53.6998C46.4424 53.9146 46.3897 54.1261 46.2888 54.3157C46.2888 54.3157 46.2888 54.3142 46.2888 54.3134V51.1169C46.2888 50.7682 46.1503 50.4337 45.9037 50.1872C45.6572 49.9406 45.3227 49.8021 44.974 49.8021H43.2648C43.1213 50.0607 42.2769 50.2592 41.2568 50.2592C40.2367 50.2592 39.3924 50.0607 39.2488 49.8021H22.0008C21.9174 49.8021 21.8349 49.8197 21.7586 49.8537C21.6824 49.8877 21.6143 49.9375 21.5586 49.9997V49.7841C21.5586 49.7059 21.574 49.6284 21.6039 49.5562C21.6338 49.4839 21.6777 49.4182 21.733 49.3629C21.7883 49.3076 21.854 49.2637 21.9263 49.2338C21.9986 49.2039 22.076 49.1885 22.1542 49.1885Z" fill="white"/>
</g>
<path d="M45.1271 55.3216H22.1539C21.9147 55.3213 21.6853 55.2261 21.5161 55.0569C21.3469 54.8877 21.2517 54.6584 21.2515 54.4191V49.7843C21.2517 49.545 21.3469 49.3157 21.5161 49.1465C21.6853 48.9773 21.9147 48.8821 22.1539 48.8818H45.1271C45.557 48.8823 45.9692 49.0533 46.2732 49.3573C46.5772 49.6613 46.7482 50.0735 46.7487 50.5034V53.7C46.7482 54.1299 46.5772 54.5421 46.2732 54.8461C45.9692 55.1501 45.557 55.3211 45.1271 55.3216ZM22.1539 49.4954C22.0773 49.4955 22.0039 49.526 21.9498 49.5801C21.8956 49.6343 21.8651 49.7077 21.8651 49.7843V54.4196C21.8651 54.4962 21.8956 54.5696 21.9498 54.6237C22.0039 54.6779 22.0773 54.7083 22.1539 54.7084H45.1271C45.3943 54.7081 45.6505 54.6018 45.8395 54.4128C46.0285 54.2239 46.1348 53.9677 46.1351 53.7004V50.5034C46.1348 50.2362 46.0285 49.98 45.8395 49.791C45.6505 49.6021 45.3943 49.4958 45.1271 49.4954H22.1539Z" fill="#363636"/>
<path d="M34.2507 53.7246H21.5583V50.5196H34.2507C34.384 50.5196 34.516 50.5459 34.6391 50.5969C34.7622 50.6479 34.8741 50.7226 34.9684 50.8169C35.0626 50.9111 35.1374 51.023 35.1884 51.1461C35.2394 51.2693 35.2656 51.4012 35.2656 51.5345V52.7097C35.2656 52.843 35.2394 52.975 35.1884 53.0981C35.1374 53.2212 35.0626 53.3331 34.9684 53.4274C34.8741 53.5216 34.7622 53.5964 34.6391 53.6474C34.516 53.6984 34.384 53.7246 34.2507 53.7246Z" fill="white"/>
<g opacity="0.3">
<path d="M33.3307 53.0341C33.5998 53.0341 33.858 52.9271 34.0483 52.7368C34.2386 52.5465 34.3456 52.2883 34.3456 52.0192V50.8441C34.3454 50.7346 34.3274 50.6258 34.2923 50.522C34.5539 50.5324 34.8013 50.6436 34.9828 50.8323C35.1643 51.021 35.2657 51.2726 35.266 51.5344V52.7095C35.266 52.9786 35.159 53.2368 34.9687 53.4271C34.7784 53.6174 34.5202 53.7244 34.2511 53.7244H21.5586V53.0341H33.3307Z" fill="#363636"/>
</g>
<path d="M34.2507 54.0053H21.5582C21.4836 54.0053 21.412 53.9757 21.3593 53.9229C21.3065 53.8702 21.2769 53.7986 21.2769 53.724V50.5195C21.2769 50.4449 21.3066 50.3734 21.3593 50.3206C21.4121 50.2679 21.4836 50.2383 21.5582 50.2383H34.2507C34.5943 50.2386 34.9238 50.3753 35.1668 50.6183C35.4098 50.8614 35.5465 51.1908 35.5469 51.5345V52.7096C35.5464 53.0531 35.4096 53.3825 35.1666 53.6254C34.9236 53.8683 34.5942 54.0049 34.2507 54.0053ZM21.8394 53.4428H34.2507C34.4452 53.4426 34.6317 53.3652 34.7692 53.2276C34.9067 53.0901 34.9841 52.9036 34.9844 52.7091V51.5341C34.9842 51.3395 34.9068 51.153 34.7692 51.0155C34.6317 50.8779 34.4452 50.8005 34.2507 50.8003H21.8394V53.4428Z" fill="#363636"/>
<g opacity="0.4">
<path d="M24.6381 51.4681C24.3815 51.5003 24.1248 51.5153 23.8682 51.5264L23.0983 51.5517C22.8416 51.5612 22.585 51.5653 22.3285 51.5718C22.072 51.5782 21.8152 51.5811 21.5586 51.5831V51.353C21.8152 51.355 22.0719 51.3579 22.3285 51.3644C22.5851 51.3708 22.8416 51.3748 23.0983 51.3843L23.8682 51.4098C24.1248 51.4207 24.3822 51.4359 24.6381 51.4681Z" fill="#363636"/>
<path d="M35.2419 51.583C33.7927 51.5924 32.3436 51.5847 30.8944 51.5761L28.7206 51.5537C27.996 51.5444 27.2714 51.5537 26.5469 51.468C27.2714 51.3827 27.996 51.3913 28.7206 51.3821L30.8944 51.3597C32.3436 51.3512 33.7927 51.3436 35.2419 51.3529V51.583Z" fill="#363636"/>
<path d="M29.0821 52.1601C28.455 52.2449 27.828 52.242 27.2011 52.2495L25.3203 52.2716L23.4394 52.2811C22.8125 52.2821 22.1856 52.2801 21.5586 52.2753V52.0452C22.1855 52.0392 22.8125 52.0385 23.4394 52.0394L25.3203 52.0487L27.2011 52.0707C27.828 52.0782 28.455 52.0753 29.0821 52.1601Z" fill="#363636"/>
<path d="M35.2421 52.2751C34.849 52.2784 34.4558 52.2784 34.0626 52.2751L32.8832 52.2623L31.7039 52.2392C31.3107 52.2331 30.9176 52.225 30.5244 52.1601C30.9176 52.095 31.3107 52.0869 31.7039 52.0809L32.8832 52.0579L34.0626 52.045C34.4558 52.0423 34.849 52.0423 35.2421 52.045V52.2751Z" fill="#363636"/>
<path d="M25.3203 52.8524C25.0069 52.8985 24.6933 52.9184 24.3799 52.9304L23.4394 52.9541C23.126 52.9635 22.8125 52.9644 22.4989 52.9683C22.3423 52.9707 22.1855 52.9714 22.0288 52.9704C21.872 52.9704 21.7154 52.9704 21.5586 52.9675V52.7374C21.7154 52.7346 21.872 52.7348 22.0288 52.7345C22.1855 52.7342 22.3423 52.7345 22.4989 52.7366C22.8125 52.7405 23.126 52.7414 23.4394 52.7507L24.3799 52.7745C24.6933 52.7866 25.0069 52.8063 25.3203 52.8524Z" fill="#363636"/>
<path d="M35.2421 52.9677L33.3045 52.9572L31.3671 52.9385L29.4296 52.9134C28.7838 52.9055 28.1378 52.898 27.4922 52.852C28.1378 52.806 28.7838 52.7991 29.4296 52.7906L31.3671 52.7655L33.3045 52.7469L35.2421 52.7363V52.9677Z" fill="#363636"/>
</g>
<path d="M17.7396 54.8995C18.077 54.806 18.4145 54.7563 18.752 54.7184C19.0895 54.6806 19.427 54.6672 19.7644 54.656C20.4394 54.6313 21.1144 54.6443 21.7893 54.6578C22.4643 54.6713 23.1392 54.669 23.8142 54.6694H46.0946H47.1071C47.4445 54.6694 47.782 54.654 48.1195 54.6465C48.4573 54.6389 48.7953 54.6499 49.1319 54.6795C49.4694 54.7137 49.8069 54.7704 50.1444 54.8998C50.1679 54.9085 50.1881 54.9242 50.2024 54.9447C50.2167 54.9653 50.2244 54.9898 50.2244 55.0148C50.2244 55.0399 50.2167 55.0643 50.2024 55.0849C50.1881 55.1054 50.1679 55.1211 50.1444 55.1299C49.8069 55.2592 49.4694 55.3161 49.1319 55.3501C48.7953 55.3797 48.4573 55.3908 48.1195 55.3831C47.782 55.3759 47.4445 55.3601 47.1071 55.3603H46.0946H23.8156C23.1406 55.3603 22.4657 55.3574 21.7907 55.3718C21.1157 55.3862 20.4408 55.3983 19.7658 55.3736C19.4283 55.3624 19.0909 55.3495 18.7534 55.3112C18.4159 55.2728 18.0784 55.2236 17.7409 55.1302C17.7158 55.1232 17.6935 55.1082 17.6777 55.0874C17.6619 55.0666 17.6533 55.0412 17.6533 55.0151C17.6533 54.989 17.6619 54.9636 17.6777 54.9428C17.6935 54.922 17.7158 54.907 17.7409 54.9001L17.7396 54.8995Z" fill="#363636"/>
</g>
<defs>
<filter id="filter0_ddd_26673_18398" x="0" y="0" width="68" height="69" filterUnits="userSpaceOnUse" color-interpolation-filters="sRGB">
<feFlood flood-opacity="0" result="BackgroundImageFix"/>
<feColorMatrix in="SourceAlpha" type="matrix" values="0 0 0 0 0 0 0 0 0 0 0 0 0 0 0 0 0 0 127 0" result="hardAlpha"/>
<feOffset dy="1"/>
<feGaussianBlur stdDeviation="2.5"/>
<feColorMatrix type="matrix" values="0 0 0 0 0.748125 0 0 0 0 0.767812 0 0 0 0 0.7875 0 0 0 0.24 0"/>
<feBlend mode="normal" in2="BackgroundImageFix" result="effect1_dropShadow_26673_18398"/>
<feColorMatrix in="SourceAlpha" type="matrix" values="0 0 0 0 0 0 0 0 0 0 0 0 0 0 0 0 0 0 127 0" result="hardAlpha"/>
<feOffset dy="3"/>
<feGaussianBlur stdDeviation="2"/>
<feColorMatrix type="matrix" values="0 0 0 0 0.748125 0 0 0 0 0.767812 0 0 0 0 0.7875 0 0 0 0.18 0"/>
<feBlend mode="normal" in2="effect1_dropShadow_26673_18398" result="effect2_dropShadow_26673_18398"/>
<feColorMatrix in="SourceAlpha" type="matrix" values="0 0 0 0 0 0 0 0 0 0 0 0 0 0 0 0 0 0 127 0" result="hardAlpha"/>
<feOffset dy="2"/>
<feGaussianBlur stdDeviation="2"/>
<feColorMatrix type="matrix" values="0 0 0 0 0.748125 0 0 0 0 0.767812 0 0 0 0 0.7875 0 0 0 0.2 0"/>
<feBlend mode="normal" in2="effect2_dropShadow_26673_18398" result="effect3_dropShadow_26673_18398"/>
<feBlend mode="normal" in="SourceGraphic" in2="effect3_dropShadow_26673_18398" result="shape"/>
</filter>
</defs>
</svg>
